<?xml version="1.0" encoding="UTF-8"?>
<!DOCTYPE svg PUBLIC "-//W3C//DTD SVG 1.1//EN" "http://www.w3.org/Graphics/SVG/1.1/DTD/svg11.dtd">
<!-- Creator: CorelDRAW -->
<svg xmlns="http://www.w3.org/2000/svg" xml:space="preserve" width="986px" height="212px" version="1.1" style="shape-rendering:geometricPrecision; text-rendering:geometricPrecision; image-rendering:optimizeQuality; fill-rule:evenodd; clip-rule:evenodd"
viewBox="0 0 654.1 140.49"
 xmlns:xlink="http://www.w3.org/1999/xlink"
 xmlns:xodm="http://www.corel.com/coreldraw/odm/2003">
 <defs>
  <style type="text/css">
   <![CDATA[
    .fil1 {fill:black}
    .fil0 {fill:#00CCFF}
   ]]>
  </style>
 </defs>
 <g id="Capa_x0020_1">
  <metadata id="CorelCorpID_0Corel-Layer"/>
  <g>
   <path class="fil0" d="M88.02 20.74l-16.31 0 -3.05 3.89 19.36 0 0 -3.89 0 0zm0 12.6l-26.21 0 -3.05 3.89 29.26 0 0 -3.89 0 0zm0 -6.3l-21.26 0 -3.05 3.89 24.31 0 0 -3.89 0 0zm0 -27.04l-4.51 5.73 4.51 0 0 -5.73 0 0zm0 8.15l-6.41 0 -3.05 3.88 9.46 0 0 -3.88 0 0zm0 6.29l-11.36 0 -3.05 3.89 14.41 0 0 -3.89 0 0zm-4.16 60.59l7.69 0 4.6 -3.89 -12.29 0 0 3.89 0 0zm-15.85 -25.2l53.37 0 4.6 -3.89 -57.97 0 0 3.89 0 0zm0 6.08l15.85 0 0 0.22 30.06 0 4.61 -3.89 -50.52 0 0 3.67 0 0zm20.01 -16.11l0 -0.16 -29.61 0 0 0.02 9.6 0.05 0 3.82 60.83 0 4.42 -3.73 -45.24 0 0 0zm-4.16 37.67l4.77 0.02 0.06 -0.05 -4.83 0 0 0.03 0 0zm0 -8.74l15.15 0 4.6 -3.89 -19.75 0 0 3.89 0 0zm0 -6.3l22.6 0 4.61 -3.89 -27.21 0 0 3.89z"/>
  </g>
  <path class="fil0" d="M128.78 105.06c-3.72,-3.1 -6.32,-5.9 -7.78,-8.42 -1.46,-2.51 -2.19,-5.33 -2.19,-8.46 0,-5.16 1.88,-9.11 5.63,-11.87 3.76,-2.75 9.16,-4.13 16.22,-4.13 2.41,0 4.96,0.13 7.65,0.38 2.69,0.26 5.62,0.65 8.78,1.16l0.82 11.75c-3.17,-1.11 -5.86,-1.91 -8.09,-2.38 -2.23,-0.47 -4.26,-0.71 -6.1,-0.71 -3.52,0 -6.24,0.58 -8.14,1.74 -1.91,1.17 -2.86,2.8 -2.86,4.9 0,0.81 0.18,1.57 0.54,2.3 0.35,0.73 0.87,1.38 1.55,1.96l15.96 13.22c3.6,2.97 6.18,5.75 7.74,8.34 1.56,2.6 2.34,5.36 2.34,8.29 0,5.29 -2.1,9.5 -6.3,12.64 -4.2,3.15 -9.87,4.72 -17.01,4.72 -3.93,0 -7.63,-0.33 -11.09,-0.97 -3.46,-0.64 -6.27,-1.51 -8.42,-2.61l-0.78 -12.7c3.8,1.75 7.35,3.08 10.65,3.99 3.3,0.91 6.17,1.37 8.62,1.37 3.32,0 5.92,-0.59 7.8,-1.75 1.89,-1.16 2.83,-2.76 2.83,-4.79 0,-0.91 -0.34,-1.88 -1,-2.93 -0.66,-1.05 -1.59,-2.1 -2.79,-3.13l-14.58 -11.91z"/>
  <path class="fil0" d="M184.04 120.88c-0.03,0.58 -0.05,1.12 -0.07,1.64 -0.01,0.51 -0.02,0.93 -0.02,1.25 0,1.9 0.46,3.34 1.37,4.32 0.91,0.99 2.24,1.48 3.97,1.48 0.96,0 2.1,-0.12 3.42,-0.37 1.31,-0.24 2.77,-0.6 4.38,-1.08l-2.17 11.22c-1.6,0.33 -3.27,0.59 -5,0.77 -1.74,0.18 -3.53,0.27 -5.39,0.27 -4.98,0 -8.64,-0.87 -10.98,-2.63 -2.34,-1.75 -3.51,-4.51 -3.51,-8.28 0,-0.64 0.11,-2.31 0.34,-4.99 0.22,-2.69 0.38,-5.05 0.48,-7.08l0.96 -18.54 -6.93 0 0.48 -10.2 7.46 0 0.48 -8.45 13.19 -2.47 -0.48 10.92 11.84 0 -0.48 10.2 -12.13 0 -1.21 22.02z"/>
  <path class="fil0" d="M237.01 138.94c0.23,-1.12 0.42,-2.41 0.58,-3.85 0.16,-1.45 0.33,-3.64 0.49,-6.6l0.92 -14.17c-0.78,0.52 -1.57,0.97 -2.38,1.36 -0.8,0.38 -1.63,0.72 -2.47,1.01l-6.58 2.18c-2.93,0.93 -4.84,1.83 -5.71,2.68 -0.87,0.86 -1.31,2.01 -1.31,3.46 0,1.61 0.56,2.88 1.67,3.8 1.12,0.91 2.67,1.37 4.67,1.37 0.81,0 1.8,-0.11 2.98,-0.34 1.18,-0.22 2.75,-0.61 4.72,-1.16l-2.95 10.26c-1.55,0.43 -3.06,0.76 -4.53,0.99 -1.47,0.23 -2.83,0.35 -4.09,0.35 -4.97,0 -8.89,-1.31 -11.76,-3.91 -2.87,-2.62 -4.31,-6.16 -4.31,-10.64 0,-3.84 1.04,-6.96 3.12,-9.38 2.08,-2.42 5.3,-4.25 9.66,-5.51l10.31 -3.05c3.58,-1.03 5.97,-1.97 7.16,-2.81 1.2,-0.84 1.8,-1.89 1.8,-3.15 0,-1.64 -0.66,-2.91 -1.97,-3.8 -1.31,-0.89 -3.14,-1.33 -5.5,-1.33 -2.39,0 -5.04,0.41 -7.94,1.24 -2.91,0.82 -6.19,2.09 -9.84,3.81l1.61 -12.08c3.51,-0.9 6.79,-1.55 9.84,-1.95 3.04,-0.4 6.07,-0.6 9.07,-0.6 6.57,0 11.27,1.08 14.09,3.23 2.82,2.16 4.24,5.77 4.24,10.82 0,1 -0.01,1.83 -0.03,2.49 -0.02,0.66 -0.04,1.31 -0.07,1.96l-0.97 25c-0.03,0.48 -0.05,1.22 -0.07,2.21 -0.01,1 -0.02,3.03 -0.02,6.11l-14.43 0z"/>
  <path class="fil0" d="M261.14 138.94c0.8,-7.81 1.42,-15.91 1.84,-24.29 0.41,-8.38 0.62,-17.04 0.62,-25.99l12.56 0 0 7.34c1.55,-2.99 3.42,-5.18 5.63,-6.58 2.2,-1.4 4.88,-2.1 8.04,-2.1 0.87,0 1.55,0.02 2.05,0.05 0.5,0.04 0.96,0.08 1.38,0.15l0.34 11.93c-0.87,-0.12 -1.73,-0.22 -2.56,-0.29 -0.84,-0.06 -1.65,-0.09 -2.42,-0.09 -3.54,0 -6.26,0.87 -8.16,2.61 -1.9,1.74 -3.24,4.62 -4.01,8.65 -0.35,2.03 -0.64,5.45 -0.87,10.27 -0.23,4.82 -0.4,10.93 -0.53,18.34l-13.91 0z"/>
  <path class="fil1" d="M360.61 131.02c-0.49,1.41 -0.92,2.77 -1.31,4.06 -0.38,1.28 -0.74,2.57 -1.06,3.86l-17.43 0c-0.26,-1.67 -0.48,-3.05 -0.68,-4.13 -0.19,-1.08 -0.38,-2.04 -0.58,-2.88l-11.01 -47.84 -3.23 37.31c-0.16,2 -0.31,4.45 -0.46,7.37 -0.14,2.92 -0.3,6.31 -0.46,10.17l-13.52 0c1.19,-7.76 2.26,-17.18 3.21,-28.24 0.95,-11.07 1.75,-23.5 2.39,-37.29l22.65 0c0.26,1.45 0.54,2.9 0.84,4.33 0.31,1.43 0.46,2.17 0.46,2.2l10.19 45.04 14.73 -43.16 0.1 -0.24c1.03,-3.22 1.81,-5.94 2.36,-8.17l21.68 0c-0.22,3.45 -0.4,7.32 -0.53,11.6 -0.03,0.94 -0.06,1.6 -0.09,1.98l-1.26 37.41c0,0.32 -0.02,0.93 -0.05,1.83 -0.03,0.9 -0.05,1.65 -0.05,2.22 0,1.42 0.03,3.02 0.08,4.79 0.04,1.77 0.1,3.67 0.17,5.7l-13.67 0c0.23,-1.8 0.41,-3.61 0.55,-5.41 0.15,-1.8 0.25,-3.75 0.32,-5.85l0.77 -26.72 0 -5.46c0,-2.55 -0.01,-4.52 -0.02,-5.92 -0.02,-1.4 -0.04,-2.72 -0.08,-3.94l-15.01 45.38z"/>
  <g>
   <path class="fil1" d="M445.99 114.63l-31.25 0c-0.04,0.41 -0.06,0.81 -0.08,1.2 -0.01,0.39 -0.04,0.77 -0.07,1.16 0,3.82 1.19,6.75 3.57,8.79 2.38,2.05 5.81,3.06 10.28,3.06 2.45,0 4.79,-0.25 7.05,-0.76 2.25,-0.5 4.45,-1.28 6.61,-2.33l-2.67 12.45c-2.99,0.71 -5.7,1.25 -8.13,1.63 -2.43,0.37 -4.65,0.55 -6.64,0.55 -7.67,0 -13.65,-2.19 -17.94,-6.59 -4.3,-4.4 -6.45,-10.51 -6.45,-18.34 0,-8.57 2.34,-15.4 7.02,-20.49 4.68,-5.09 10.91,-7.64 18.66,-7.64 6.79,0 11.89,1.8 15.28,5.39 3.4,3.59 5.09,8.98 5.09,16.17 0,0.93 -0.02,1.87 -0.07,2.82 -0.05,0.95 -0.14,1.93 -0.26,2.93l0 0zm-30.77 -8.66l17.81 0c0,-2.86 -0.7,-5.04 -2.09,-6.57 -1.4,-1.53 -3.38,-2.29 -5.95,-2.29 -2.54,0 -4.68,0.8 -6.43,2.39 -1.75,1.59 -2.86,3.75 -3.34,6.47l0 0zm4.63 -24.11l9.91 -16.79 10.69 0 -14.36 16.79 -6.24 0z"/>
  </g>
  <g>
   <path class="fil1" d="M491.61 89.44c0.09,-1.64 0.17,-3.32 0.22,-5.04 0.04,-1.72 0.07,-3.47 0.07,-5.24 0,-1.58 -0.01,-2.77 -0.03,-3.57 -0.01,-0.81 -0.02,-1.53 -0.02,-2.18l14.19 0c-0.83,9.9 -1.5,20.34 -2,31.34 -0.5,11 -0.81,22.4 -0.94,34.19l-13.04 0 0 -6.71c-1.83,2.62 -4.15,4.64 -6.95,6.04 -2.8,1.41 -5.89,2.11 -9.27,2.11 -6.73,0 -11.88,-1.97 -15.47,-5.92 -3.59,-3.95 -5.39,-9.6 -5.39,-16.96 0,-9.32 2.48,-16.58 7.44,-21.77 4.96,-5.19 11.89,-7.79 20.81,-7.79 1.77,0 3.51,0.12 5.21,0.37 1.71,0.24 3.43,0.62 5.17,1.13l0 0zm-0.2 11.1c-1.12,-0.39 -2.37,-0.68 -3.74,-0.87 -1.37,-0.2 -2.85,-0.29 -4.46,-0.29 -5.22,0 -9.26,1.47 -12.12,4.42 -2.87,2.95 -4.3,7.11 -4.3,12.49 0,3.96 0.97,7.06 2.92,9.3 1.95,2.24 4.64,3.36 8.09,3.36 4.12,0 7.3,-1.28 9.56,-3.84 2.25,-2.56 3.48,-6.32 3.67,-11.29l0.38 -13.28z"/>
  </g>
  <g>
   <path class="fil1" d="M530 89.49c-0.51,9.43 -0.89,18.34 -1.13,26.73 -0.24,8.39 -0.37,15.96 -0.37,22.72l-14.16 0c0.75,-7.95 1.29,-16.04 1.65,-24.27 0.35,-8.22 0.53,-16.62 0.53,-25.18l13.48 0 0 0zm-13.19 -3.92l0.49 -12.05 13.42 0 -0.51 12.05 -13.4 0z"/>
  </g>
  <path class="fil1" d="M579.22 100.92c-2.71,-0.82 -4.99,-1.4 -6.83,-1.75 -1.84,-0.34 -3.5,-0.51 -4.99,-0.51 -4.84,0 -8.55,1.38 -11.12,4.16 -2.56,2.78 -3.85,6.78 -3.85,12.02 0,4.58 1.18,8.05 3.54,10.39 2.35,2.34 5.81,3.51 10.37,3.51 1.55,0 3.31,-0.19 5.28,-0.58 1.97,-0.39 4.44,-1.02 7.41,-1.89l-1.89 11.95c-2.71,0.73 -5.17,1.28 -7.37,1.63 -2.21,0.36 -4.28,0.53 -6.22,0.53 -7.76,0 -13.77,-2.2 -18.03,-6.62 -4.25,-4.41 -6.38,-10.66 -6.38,-18.75 0,-8.63 2.35,-15.4 7.04,-20.32 4.68,-4.91 11.14,-7.37 19.36,-7.37 2.09,0 4.28,0.16 6.57,0.46 2.29,0.31 4.66,0.78 7.11,1.42l0 11.72z"/>
  <path class="fil1" d="M616.03 138.94c0.22,-1.12 0.42,-2.41 0.58,-3.85 0.16,-1.45 0.32,-3.64 0.48,-6.6l0.92 -14.17c-0.77,0.52 -1.56,0.97 -2.37,1.36 -0.81,0.38 -1.63,0.72 -2.47,1.01l-6.58 2.18c-2.94,0.93 -4.84,1.83 -5.71,2.68 -0.88,0.86 -1.31,2.01 -1.31,3.46 0,1.61 0.55,2.88 1.67,3.8 1.11,0.91 2.67,1.37 4.67,1.37 0.81,0 1.8,-0.11 2.98,-0.34 1.18,-0.22 2.75,-0.61 4.72,-1.16l-2.96 10.26c-1.54,0.43 -3.05,0.76 -4.52,0.99 -1.47,0.23 -2.83,0.35 -4.09,0.35 -4.97,0 -8.89,-1.31 -11.76,-3.91 -2.88,-2.62 -4.31,-6.16 -4.31,-10.64 0,-3.84 1.04,-6.96 3.12,-9.38 2.08,-2.42 5.3,-4.25 9.65,-5.51l10.32 -3.05c3.58,-1.03 5.97,-1.97 7.16,-2.81 1.19,-0.84 1.79,-1.89 1.79,-3.15 0,-1.64 -0.65,-2.91 -1.96,-3.8 -1.31,-0.89 -3.14,-1.33 -5.5,-1.33 -2.39,0 -5.04,0.41 -7.95,1.24 -2.9,0.82 -6.18,2.09 -9.83,3.81l1.6 -12.08c3.52,-0.9 6.8,-1.55 9.84,-1.95 3.05,-0.4 6.07,-0.6 9.07,-0.6 6.58,0 11.28,1.08 14.1,3.23 2.82,2.16 4.23,5.77 4.23,10.82 0,1 -0.01,1.83 -0.02,2.49 -0.02,0.66 -0.04,1.31 -0.07,1.96l-0.97 25c-0.03,0.48 -0.06,1.22 -0.07,2.21 -0.02,1 -0.03,3.03 -0.03,6.11l-14.42 0z"/>
  <path class="fil1" d="M155.67 56.91l-3.5 0c0.21,-1.92 0.38,-4.18 0.52,-6.77 0.14,-2.59 0.22,-5.43 0.27,-8.51l3.5 0c-0.06,0.52 -0.11,1.03 -0.15,1.55 -0.05,0.53 -0.09,1.06 -0.13,1.62l-0.13 2.84c0.45,0 1.11,0 2,0.01 0.89,0.01 1.55,0.01 1.98,0.01 0.45,0 1.1,0 1.96,-0.01 0.87,-0.01 1.51,-0.01 1.94,-0.01l0.1 -2.11 0 -0.13c0.06,-1.23 0.09,-2.14 0.09,-2.74 0,-0.28 0,-0.5 0,-0.64 -0.01,-0.14 -0.01,-0.27 -0.02,-0.39l3.53 -0.01c-0.09,0.7 -0.15,1.3 -0.2,1.81 -0.05,0.5 -0.09,0.96 -0.11,1.39l-0.43 8.7c-0.02,0.31 -0.03,0.6 -0.04,0.88 -0.01,0.27 -0.01,0.54 -0.01,0.82 0,0.15 0,0.42 0.01,0.79 0.01,0.38 0.01,0.68 0.01,0.9l-3.53 0c0.08,-0.83 0.15,-1.76 0.23,-2.8 0.01,-0.2 0.02,-0.33 0.03,-0.41l0.18 -3.26c-0.67,-0.03 -1.34,-0.04 -2,-0.06 -0.65,-0.01 -1.31,-0.01 -1.96,-0.01 -0.66,0 -1.31,0 -1.95,0.01 -0.65,0.02 -1.3,0.03 -1.95,0.06l-0.09 1.51c-0.04,0.68 -0.07,1.42 -0.09,2.24 -0.02,0.82 -0.04,1.73 -0.06,2.72z"/>
  <g>
   <path class="fil1" d="M184.84 57.23c-2.77,0 -4.9,-0.66 -6.39,-1.98 -1.49,-1.33 -2.24,-3.22 -2.24,-5.67 0,-2.58 0.77,-4.61 2.3,-6.08 1.53,-1.48 3.64,-2.21 6.33,-2.21 2.78,0 4.91,0.66 6.4,1.98 1.49,1.32 2.23,3.21 2.23,5.68 0,2.57 -0.77,4.6 -2.3,6.07 -1.54,1.47 -3.65,2.21 -6.33,2.21l0 0zm-5.2 -7.66c0,1.57 0.44,2.79 1.33,3.67 0.88,0.87 2.12,1.31 3.71,1.31 1.75,0 3.08,-0.47 3.99,-1.42 0.92,-0.95 1.37,-2.33 1.37,-4.14 0,-1.62 -0.44,-2.86 -1.33,-3.72 -0.88,-0.85 -2.16,-1.28 -3.83,-1.28 -1.69,0 -2.99,0.48 -3.89,1.44 -0.9,0.96 -1.35,2.34 -1.35,4.14z"/>
  </g>
  <path class="fil1" d="M204.36 48.99c-0.86,-0.72 -1.47,-1.38 -1.81,-1.97 -0.34,-0.58 -0.51,-1.24 -0.51,-1.97 0,-1.2 0.44,-2.13 1.31,-2.77 0.88,-0.64 2.14,-0.97 3.79,-0.97 0.56,0 1.16,0.03 1.79,0.09 0.63,0.06 1.31,0.15 2.05,0.27l0.19 2.73c-0.74,-0.25 -1.37,-0.44 -1.89,-0.55 -0.52,-0.11 -1,-0.17 -1.43,-0.17 -0.82,0 -1.45,0.14 -1.9,0.41 -0.44,0.27 -0.66,0.66 -0.66,1.15 0,0.19 0.04,0.37 0.12,0.53 0.08,0.17 0.21,0.33 0.36,0.46l3.73 3.1c0.84,0.69 1.44,1.34 1.81,1.94 0.36,0.61 0.54,1.25 0.54,1.94 0,1.23 -0.49,2.21 -1.47,2.95 -0.97,0.73 -2.3,1.1 -3.96,1.1 -0.92,0 -1.78,-0.08 -2.59,-0.23 -0.81,-0.15 -1.46,-0.35 -1.97,-0.61l-0.18 -2.95c0.89,0.41 1.72,0.71 2.49,0.92 0.77,0.21 1.44,0.32 2.01,0.32 0.77,0 1.38,-0.14 1.82,-0.41 0.44,-0.27 0.66,-0.64 0.66,-1.11 0,-0.21 -0.08,-0.44 -0.23,-0.69 -0.16,-0.24 -0.38,-0.48 -0.66,-0.72l-3.41 -2.79z"/>
  <path class="fil1" d="M220.06 56.9c0.21,-1.93 0.39,-4.18 0.52,-6.77 0.14,-2.59 0.23,-5.43 0.27,-8.51l6.3 0c0.8,0 1.39,0.03 1.78,0.09 0.38,0.05 0.7,0.15 0.97,0.28 0.65,0.33 1.14,0.79 1.48,1.4 0.34,0.6 0.51,1.32 0.51,2.15 0,1.53 -0.49,2.75 -1.46,3.67 -0.97,0.92 -2.26,1.38 -3.89,1.38 -0.2,0 -0.42,-0.02 -0.66,-0.05 -0.23,-0.03 -0.5,-0.08 -0.82,-0.14l-0.62 -2.49c0.31,0.09 0.6,0.15 0.88,0.19 0.28,0.04 0.56,0.07 0.83,0.07 0.79,0 1.41,-0.21 1.85,-0.62 0.44,-0.42 0.67,-0.99 0.67,-1.72 0,-0.64 -0.19,-1.09 -0.56,-1.35 -0.37,-0.25 -1.04,-0.39 -1.99,-0.39l-1.96 0c-0.07,0.81 -0.12,1.35 -0.14,1.63 -0.03,0.29 -0.04,0.48 -0.04,0.6l-0.22 5.92c-0.02,0.15 -0.04,0.77 -0.06,1.85 -0.02,1.08 -0.05,2.02 -0.07,2.81l-3.57 0z"/>
  <path class="fil1" d="M244.1 41.62c-0.09,0.7 -0.15,1.3 -0.2,1.81 -0.05,0.5 -0.08,0.96 -0.1,1.37l-0.46 8.7c0,0.12 -0.01,0.25 -0.01,0.4 -0.01,0.15 -0.01,0.4 -0.01,0.76 0,0.54 0,0.97 0.01,1.3 0,0.32 0,0.64 0,0.94l-3.61 0c0.22,-1.86 0.4,-4.08 0.54,-6.66 0.13,-2.58 0.22,-5.46 0.27,-8.62l3.57 0z"/>
  <path class="fil1" d="M259.71 44.07l-0.42 8.14c-0.03,0.55 -0.05,1.1 -0.06,1.64 -0.02,0.55 -0.03,1.1 -0.03,1.66 0,0.39 0,0.68 0.01,0.87 0,0.19 0.01,0.36 0.02,0.52l-3.6 0c0.25,-2.08 0.44,-4.2 0.6,-6.34 0.15,-2.14 0.24,-4.31 0.29,-6.5 -0.13,-0.01 -0.27,-0.01 -0.42,-0.02 -0.15,0 -0.38,0 -0.69,0 -0.53,0 -1.08,0.01 -1.64,0.03 -0.56,0.02 -1.13,0.06 -1.71,0.11l0.17 -2.56 12.17 0 -0.13 2.56c-0.54,-0.05 -1.07,-0.09 -1.59,-0.11 -0.52,-0.02 -1.04,-0.03 -1.56,-0.03 -0.39,0 -0.68,0 -0.87,0 -0.2,0.01 -0.38,0.01 -0.54,0.03z"/>
  <g>
   <path class="fil1" d="M269.71 56.9l6.31 -13.41c0.11,-0.22 0.23,-0.49 0.34,-0.81 0.11,-0.31 0.22,-0.67 0.33,-1.06l4.62 0c0.13,0.52 0.26,0.99 0.39,1.41 0.13,0.42 0.26,0.81 0.39,1.18l4.56 12.69 -3.69 0c-0.1,-0.58 -0.17,-0.99 -0.23,-1.24 -0.06,-0.25 -0.11,-0.44 -0.15,-0.57l-1.56 -4.25 -5.3 0 -1.7 3.75c-0.15,0.28 -0.28,0.61 -0.41,0.98 -0.13,0.37 -0.26,0.82 -0.4,1.33l-3.5 0 0 0zm8.99 -13.2l-2.04 4.67 3.68 0 -1.64 -4.67z"/>
  </g>
  <path class="fil1" d="M293.87 56.9c0.21,-1.95 0.38,-4.2 0.51,-6.77 0.14,-2.56 0.23,-5.4 0.28,-8.51l3.53 0c-0.14,0.68 -0.24,1.63 -0.3,2.85l-0.01 0.08 -0.31 6.67 -0.01 0.07c-0.03,0.6 -0.04,1.04 -0.04,1.32 0,0.22 0.01,0.5 0.03,0.86 0.02,0.36 0.03,0.58 0.04,0.68 0.11,0.01 0.35,0.02 0.72,0.04 0.36,0.02 0.65,0.03 0.87,0.03 0.98,0 1.88,-0.03 2.7,-0.09 0.82,-0.05 1.58,-0.14 2.26,-0.25l-0.22 3.02 -10.05 0z"/>
  <path class="fil1" d="M311.86 56.9c0.21,-1.95 0.39,-4.2 0.52,-6.77 0.14,-2.56 0.23,-5.4 0.27,-8.51l11.34 0 -0.11 2.8c-0.6,-0.03 -1.15,-0.06 -1.64,-0.07 -0.49,-0.02 -0.85,-0.02 -1.09,-0.02l-5.21 0c-0.05,0.16 -0.08,0.37 -0.11,0.62 -0.03,0.25 -0.06,0.62 -0.09,1.11l-0.07 1.49 4.66 0c0.71,0 1.25,-0.01 1.59,-0.03 0.35,-0.01 0.68,-0.04 0.97,-0.07l-0.1 2.87c-0.26,-0.02 -0.54,-0.04 -0.84,-0.05 -0.31,-0.01 -0.76,-0.02 -1.35,-0.02l-1.06 0 -3.98 0 -0.13 1.6c-0.03,0.46 -0.05,0.83 -0.06,1.11 -0.02,0.27 -0.03,0.53 -0.03,0.76l0.02 0.32c0.47,0.02 0.88,0.03 1.2,0.04 0.33,0.01 0.65,0.01 0.96,0.01 1.14,0 2.19,-0.02 3.15,-0.06 0.96,-0.03 1.85,-0.09 2.66,-0.16l-0.12 3.03 -11.35 0z"/>
  <path class="fil1" d="M334.31 48.99c-0.87,-0.72 -1.48,-1.38 -1.82,-1.97 -0.34,-0.58 -0.51,-1.24 -0.51,-1.97 0,-1.2 0.44,-2.13 1.31,-2.77 0.88,-0.64 2.14,-0.97 3.79,-0.97 0.57,0 1.16,0.03 1.79,0.09 0.63,0.06 1.31,0.15 2.05,0.27l0.19 2.73c-0.74,-0.25 -1.37,-0.44 -1.89,-0.55 -0.52,-0.11 -1,-0.17 -1.43,-0.17 -0.82,0 -1.45,0.14 -1.9,0.41 -0.44,0.27 -0.66,0.66 -0.66,1.15 0,0.19 0.04,0.37 0.12,0.53 0.09,0.17 0.21,0.33 0.37,0.46l3.72 3.1c0.85,0.69 1.45,1.34 1.81,1.94 0.36,0.61 0.55,1.25 0.55,1.94 0,1.23 -0.49,2.21 -1.47,2.95 -0.98,0.73 -2.3,1.1 -3.97,1.1 -0.92,0 -1.78,-0.08 -2.59,-0.23 -0.81,-0.15 -1.46,-0.35 -1.96,-0.61l-0.18 -2.95c0.88,0.41 1.71,0.71 2.48,0.92 0.77,0.21 1.44,0.32 2.01,0.32 0.77,0 1.38,-0.14 1.82,-0.41 0.44,-0.27 0.66,-0.64 0.66,-1.11 0,-0.21 -0.08,-0.44 -0.23,-0.69 -0.16,-0.24 -0.37,-0.48 -0.65,-0.72l-3.41 -2.79z"/>
  <g>
   <path class="fil1" d="M645.69 87.56c1.16,0 2.25,0.21 3.28,0.64 1.02,0.44 1.94,1.06 2.75,1.88 0.77,0.78 1.36,1.67 1.77,2.68 0.4,1.01 0.61,2.07 0.61,3.2 0,1.14 -0.21,2.22 -0.63,3.24 -0.43,1.01 -1.04,1.91 -1.84,2.68 -0.81,0.79 -1.73,1.39 -2.75,1.81 -1.03,0.43 -2.09,0.64 -3.19,0.64 -1.12,0 -2.19,-0.22 -3.22,-0.66 -1.02,-0.43 -1.93,-1.06 -2.74,-1.88 -0.78,-0.78 -1.38,-1.68 -1.79,-2.68 -0.41,-1.01 -0.61,-2.06 -0.61,-3.15 0,-0.77 0.1,-1.51 0.3,-2.24 0.21,-0.72 0.51,-1.43 0.92,-2.12 0.76,-1.27 1.76,-2.27 3.01,-2.98 1.25,-0.71 2.63,-1.06 4.13,-1.06l0 0zm0.02 1.41c-0.95,0 -1.84,0.17 -2.66,0.5 -0.81,0.34 -1.55,0.83 -2.2,1.48 -0.69,0.68 -1.21,1.45 -1.58,2.31 -0.37,0.87 -0.55,1.76 -0.55,2.68 0,0.92 0.17,1.8 0.52,2.64 0.34,0.83 0.84,1.57 1.49,2.22 0.67,0.68 1.43,1.2 2.29,1.57 0.86,0.36 1.75,0.54 2.67,0.54 0.9,0 1.78,-0.18 2.63,-0.53 0.85,-0.35 1.63,-0.85 2.32,-1.51 0.66,-0.63 1.16,-1.36 1.52,-2.2 0.36,-0.84 0.55,-1.7 0.55,-2.6 0,-0.99 -0.17,-1.91 -0.51,-2.75 -0.33,-0.83 -0.83,-1.58 -1.49,-2.25 -0.67,-0.69 -1.43,-1.22 -2.28,-1.57 -0.84,-0.35 -1.75,-0.53 -2.72,-0.53l0 0zm-3.49 2.17l3.65 0c1.32,0 2.31,0.22 2.98,0.67 0.66,0.45 1,1.11 1,2 0,0.61 -0.19,1.14 -0.55,1.58 -0.36,0.43 -0.86,0.73 -1.5,0.88l2.09 4.17 -2.53 0 -1.76 -3.82 -1.11 0 0 3.82 -2.27 0 0 -9.3 0 0zm2.27 1.44l0 2.68 1.11 0c0.66,0 1.14,-0.11 1.44,-0.31 0.31,-0.21 0.46,-0.54 0.46,-0.99 0,-0.47 -0.16,-0.82 -0.49,-1.04 -0.33,-0.23 -0.84,-0.34 -1.53,-0.34l-0.99 0z"/>
  </g>
  <g>
   <path class="fil1" d="M43.7 55.91l0 -16.11 -43.7 0 27.85 37.69 0 -21.58 15.85 0 0 0zm24.31 21.58l0 16.07 -24.31 0 0 -16.07 -15.85 0 -22 43.76 50.47 -24.92 32.31 42.8 0 -61.64 -20.62 0z"/>
  </g>
 </g>
</svg>
