<?xml version="1.0" encoding="UTF-8"?>
<!DOCTYPE svg PUBLIC "-//W3C//DTD SVG 1.1//EN" "http://www.w3.org/Graphics/SVG/1.1/DTD/svg11.dtd">
<!-- Creator: CorelDRAW -->
<svg xmlns="http://www.w3.org/2000/svg" xml:space="preserve" width="113px" height="120px" version="1.1" style="shape-rendering:geometricPrecision; text-rendering:geometricPrecision; image-rendering:optimizeQuality; fill-rule:evenodd; clip-rule:evenodd"
viewBox="0 0 34.4 36.44"
 xmlns:xlink="http://www.w3.org/1999/xlink"
 xmlns:xodm="http://www.corel.com/coreldraw/odm/2003">
 <defs>
  <style type="text/css">
   <![CDATA[
    .fil1 {fill:#00B0C5}
    .fil0 {fill:#335A75}
   ]]>
  </style>
 </defs>
 <g id="Capa_x0020_1">
  <metadata id="CorelCorpID_0Corel-Layer"/>
  <path class="fil0" d="M2.05 14.47l0.02 19.59c0.47,2.12 2.11,2.28 4.43,2.28 3.34,-0.01 25.1,0.36 26.31,-0.3 1.82,-1.01 1.58,-2.73 1.58,-5.1l0 -19.91c0,-7.04 0.57,-7.7 -5.73,-7.7 -4.48,-0.01 -8.97,0.03 -13.45,-0.01 1.37,5.12 0.3,7.81 -2.61,10.43 -2.83,2.57 -7.19,2.71 -10.55,0.72zm6.14 16.61l20.1 0c3.31,0 2.02,-0.14 -2.8,-6.75 -0.51,-0.69 -1.29,-2.15 -2.58,-1.41 -0.7,0.41 -2.56,3.95 -5.33,-0.44 -0.56,-0.88 -1.25,-1.88 -1.79,-2.71 -2.04,-3.04 -1.8,-3.33 -3.13,-0.89l-3.2 5.8c-3.78,6.83 -4.22,6.4 -1.27,6.4zm16.01 -22.35c-5.74,1.44 -3.22,9.31 1.88,7.96 5.18,-1.36 3.14,-9.21 -1.88,-7.96z"/>
  <path class="fil1" d="M5.8 0.1c-3.49,0.57 -6.38,3.64 -5.7,7.92 0.54,3.34 3.88,6.32 8.03,5.57 3.38,-0.61 6.19,-3.91 5.49,-7.98 -0.59,-3.39 -3.74,-6.17 -7.82,-5.51zm-2.33 6.58c0.3,0.54 0.46,0.71 1.02,0.98l1.64 -1.68 0.05 4.41 1.34 0 0.02 -4.33c1.09,0.5 1.01,1.11 1.99,1.6l0.76 -0.9 -3.42 -3.38 -3.4 3.3z"/>
 </g>
</svg>
