<?xml version="1.0" encoding="UTF-8"?>
<!DOCTYPE svg PUBLIC "-//W3C//DTD SVG 1.1//EN" "http://www.w3.org/Graphics/SVG/1.1/DTD/svg11.dtd">
<!-- Creator: CorelDRAW -->
<svg xmlns="http://www.w3.org/2000/svg" xml:space="preserve" width="333px" height="67px" version="1.1" style="shape-rendering:geometricPrecision; text-rendering:geometricPrecision; image-rendering:optimizeQuality; fill-rule:evenodd; clip-rule:evenodd"
viewBox="0 0 732.81 146.79"
 xmlns:xlink="http://www.w3.org/1999/xlink"
 xmlns:xodm="http://www.corel.com/coreldraw/odm/2003">
 <defs>
  <style type="text/css">
   <![CDATA[
    .str0 {stroke:white;stroke-width:5.19;stroke-miterlimit:22.9256;stroke-opacity:0.501961}
    .fil1 {fill:none}
    .fil0 {fill:#00B0C5}
    .fil2 {fill:white;fill-rule:nonzero}
   ]]>
  </style>
 </defs>
 <g id="Capa_x0020_1">
  <metadata id="CorelCorpID_0Corel-Layer"/>
  <rect class="fil0" width="732.81" height="146.79" rx="43.07" ry="35.18"/>
  <path class="fil1 str0" d="M38.34 5.82l656.12 0c17.82,0 32.39,14.57 32.39,32.39l0 70.37c0,17.81 -14.57,32.38 -32.39,32.38l-656.12 0c-17.81,0 -32.38,-14.57 -32.38,-32.38l0 -70.37c0,-17.82 14.57,-32.39 32.38,-32.39z"/>
  <g id="_2492234383904">
   <path class="fil2" d="M86.31 91.68c0,0.8 -0.01,1.46 -0.06,2 -0.05,0.54 -0.11,0.99 -0.19,1.37 -0.08,0.36 -0.17,0.66 -0.28,0.89 -0.11,0.23 -0.35,0.52 -0.71,0.88 -0.37,0.34 -1,0.78 -1.87,1.28 -0.9,0.5 -1.9,0.96 -3.04,1.36 -1.13,0.39 -2.35,0.72 -3.68,0.96 -1.33,0.25 -2.71,0.37 -4.12,0.37 -3.15,0 -5.93,-0.48 -8.36,-1.47 -2.44,-0.97 -4.48,-2.43 -6.14,-4.34 -1.64,-1.91 -2.89,-4.26 -3.73,-7.01 -0.84,-2.76 -1.26,-5.9 -1.26,-9.46 0,-4.1 0.51,-7.65 1.53,-10.63 1.04,-2.99 2.46,-5.46 4.29,-7.42 1.83,-1.96 4.01,-3.41 6.52,-4.37 2.5,-0.95 5.25,-1.42 8.26,-1.42 1.22,0 2.41,0.11 3.6,0.33 1.18,0.2 2.27,0.5 3.31,0.86 1.02,0.37 1.94,0.78 2.74,1.23 0.81,0.47 1.39,0.87 1.72,1.21 0.34,0.33 0.58,0.61 0.72,0.84 0.12,0.24 0.24,0.54 0.31,0.9 0.08,0.37 0.14,0.83 0.19,1.36 0.05,0.55 0.06,1.19 0.06,1.96 0,1.78 -0.14,3.04 -0.45,3.75 -0.31,0.72 -0.71,1.09 -1.19,1.09 -0.52,0 -1.08,-0.23 -1.66,-0.65 -0.58,-0.42 -1.27,-0.91 -2.07,-1.42 -0.78,-0.52 -1.74,-1 -2.83,-1.43 -1.1,-0.42 -2.41,-0.64 -3.95,-0.64 -3,0 -5.29,1.16 -6.89,3.46 -1.58,2.32 -2.38,5.7 -2.38,10.16 0,2.19 0.21,4.14 0.6,5.83 0.41,1.67 0.99,3.08 1.77,4.21 0.78,1.13 1.75,1.99 2.93,2.55 1.19,0.57 2.55,0.85 4.11,0.85 1.59,0 2.96,-0.24 4.11,-0.72 1.14,-0.47 2.14,-1.01 3,-1.58 0.85,-0.58 1.57,-1.12 2.16,-1.59 0.58,-0.48 1.07,-0.72 1.46,-0.72 0.28,0 0.5,0.08 0.69,0.24 0.19,0.15 0.33,0.44 0.44,0.84 0.11,0.43 0.18,0.96 0.25,1.6 0.06,0.64 0.09,1.47 0.09,2.49zm42.71 6.67c0,0.42 -0.15,0.75 -0.45,1 -0.32,0.25 -0.8,0.42 -1.46,0.53 -0.66,0.11 -1.63,0.16 -2.93,0.16 -1.37,0 -2.37,-0.05 -3,-0.16 -0.63,-0.11 -1.08,-0.28 -1.33,-0.53 -0.27,-0.25 -0.39,-0.58 -0.39,-1l0 -3.26c-1.7,1.8 -3.6,3.2 -5.77,4.2 -2.14,1 -4.54,1.5 -7.17,1.5 -2.16,0 -4.16,-0.28 -5.98,-0.84 -1.81,-0.57 -3.38,-1.41 -4.71,-2.52 -1.33,-1.13 -2.37,-2.51 -3.1,-4.15 -0.74,-1.66 -1.1,-3.59 -1.1,-5.78 0,-2.4 0.47,-4.46 1.4,-6.22 0.94,-1.76 2.33,-3.21 4.18,-4.36 1.85,-1.15 4.13,-1.99 6.89,-2.54 2.74,-0.55 5.93,-0.83 9.56,-0.83l4 0 0 -2.47c0,-1.29 -0.13,-2.41 -0.4,-3.39 -0.25,-0.95 -0.69,-1.76 -1.28,-2.41 -0.59,-0.64 -1.38,-1.11 -2.38,-1.42 -0.99,-0.3 -2.22,-0.46 -3.68,-0.46 -1.93,0 -3.65,0.22 -5.15,0.65 -1.52,0.42 -2.85,0.9 -4.01,1.42 -1.16,0.52 -2.13,1 -2.91,1.42 -0.78,0.43 -1.41,0.65 -1.9,0.65 -0.34,0 -0.64,-0.11 -0.89,-0.32 -0.26,-0.21 -0.48,-0.53 -0.64,-0.92 -0.17,-0.39 -0.3,-0.89 -0.39,-1.47 -0.1,-0.58 -0.14,-1.22 -0.14,-1.91 0,-0.96 0.08,-1.71 0.23,-2.26 0.14,-0.54 0.44,-1.03 0.86,-1.48 0.44,-0.44 1.18,-0.93 2.26,-1.46 1.06,-0.53 2.32,-1.03 3.76,-1.49 1.44,-0.47 3,-0.84 4.69,-1.12 1.71,-0.3 3.46,-0.44 5.26,-0.44 3.21,0 5.95,0.31 8.24,0.94 2.27,0.62 4.15,1.59 5.6,2.89 1.48,1.3 2.56,2.98 3.23,5.03 0.67,2.03 1,4.48 1,7.28l0 27.54zm-11.36 -17.57l-4.4 0c-1.87,0 -3.45,0.14 -4.76,0.41 -1.32,0.28 -2.38,0.69 -3.21,1.25 -0.83,0.55 -1.43,1.21 -1.8,1.99 -0.4,0.78 -0.58,1.68 -0.58,2.68 0,1.72 0.54,3.07 1.63,4.04 1.08,0.98 2.58,1.47 4.5,1.47 1.62,0 3.1,-0.41 4.47,-1.24 1.36,-0.83 2.74,-2.03 4.15,-3.63l0 -6.97zm49.19 -19.71c0,1.1 -0.03,2 -0.1,2.71 -0.06,0.7 -0.15,1.25 -0.26,1.64 -0.13,0.39 -0.3,0.68 -0.49,0.83 -0.2,0.16 -0.45,0.22 -0.76,0.22 -0.24,0 -0.52,-0.04 -0.83,-0.16 -0.3,-0.1 -0.65,-0.21 -1.04,-0.34 -0.37,-0.12 -0.8,-0.23 -1.25,-0.34 -0.47,-0.11 -0.97,-0.16 -1.52,-0.16 -0.64,0 -1.28,0.13 -1.92,0.39 -0.65,0.27 -1.32,0.66 -2.01,1.22 -0.69,0.55 -1.41,1.29 -2.16,2.2 -0.75,0.92 -1.55,2.05 -2.41,3.39l0 25.54c0,0.3 -0.09,0.56 -0.28,0.8 -0.17,0.23 -0.49,0.42 -0.94,0.58 -0.44,0.14 -1.03,0.26 -1.75,0.34 -0.74,0.08 -1.68,0.11 -2.81,0.11 -1.13,0 -2.06,-0.03 -2.8,-0.11 -0.72,-0.08 -1.32,-0.2 -1.75,-0.34 -0.46,-0.16 -0.77,-0.35 -0.94,-0.58 -0.19,-0.24 -0.28,-0.5 -0.28,-0.8l0 -40.96c0,-0.3 0.07,-0.56 0.23,-0.8 0.14,-0.23 0.42,-0.42 0.81,-0.58 0.41,-0.14 0.91,-0.26 1.54,-0.34 0.63,-0.08 1.42,-0.11 2.36,-0.11 0.99,0 1.79,0.03 2.43,0.11 0.64,0.08 1.14,0.2 1.5,0.34 0.35,0.16 0.6,0.35 0.75,0.58 0.16,0.24 0.24,0.5 0.24,0.8l0 5.1c1.06,-1.53 2.08,-2.78 3.02,-3.77 0.95,-0.99 1.86,-1.78 2.71,-2.36 0.86,-0.58 1.72,-0.99 2.58,-1.21 0.85,-0.23 1.71,-0.34 2.57,-0.34 0.39,0 0.83,0.01 1.28,0.06 0.46,0.05 0.94,0.12 1.43,0.24 0.48,0.1 0.92,0.23 1.28,0.35 0.38,0.14 0.64,0.29 0.82,0.44 0.15,0.16 0.28,0.33 0.36,0.5 0.08,0.19 0.14,0.44 0.2,0.77 0.06,0.31 0.11,0.8 0.14,1.44 0.03,0.64 0.05,1.51 0.05,2.6zm42.84 -0.95c0,1.47 -0.18,2.55 -0.52,3.25 -0.33,0.71 -0.74,1.07 -1.24,1.07l-4.81 0c0.68,0.73 1.15,1.56 1.44,2.49 0.3,0.94 0.44,1.91 0.44,2.91 0,2.38 -0.4,4.49 -1.19,6.34 -0.8,1.85 -1.94,3.41 -3.43,4.68 -1.47,1.27 -3.27,2.22 -5.35,2.88 -2.1,0.66 -4.43,0.99 -7,0.99 -1.31,0 -2.57,-0.16 -3.76,-0.49 -1.2,-0.31 -2.11,-0.69 -2.75,-1.11 -0.38,0.39 -0.71,0.86 -0.99,1.43 -0.3,0.54 -0.44,1.15 -0.44,1.83 0,0.89 0.39,1.63 1.18,2.19 0.77,0.56 1.86,0.88 3.27,0.94l9.96 0.36c2.31,0.09 4.4,0.42 6.21,0.99 1.82,0.56 3.35,1.36 4.59,2.39 1.24,1.02 2.19,2.26 2.85,3.68 0.66,1.44 0.99,3.08 0.99,4.92 0,2.02 -0.46,3.91 -1.33,5.7 -0.9,1.8 -2.23,3.35 -4,4.66 -1.78,1.32 -4.01,2.35 -6.68,3.12 -2.68,0.76 -5.79,1.14 -9.38,1.14 -3.48,0 -6.45,-0.28 -8.92,-0.83 -2.46,-0.55 -4.48,-1.31 -6.05,-2.28 -1.58,-0.99 -2.72,-2.15 -3.44,-3.51 -0.72,-1.36 -1.08,-2.85 -1.08,-4.48 0,-1 0.12,-1.97 0.39,-2.88 0.26,-0.93 0.64,-1.8 1.14,-2.65 0.5,-0.83 1.13,-1.64 1.87,-2.39 0.73,-0.77 1.56,-1.51 2.51,-2.21 -1.31,-0.71 -2.33,-1.66 -3.05,-2.87 -0.72,-1.2 -1.08,-2.53 -1.08,-3.97 0,-1.8 0.42,-3.45 1.24,-4.93 0.83,-1.49 1.91,-2.82 3.22,-4.03 -1.08,-1.06 -1.92,-2.35 -2.56,-3.83 -0.65,-1.51 -0.98,-3.37 -0.98,-5.59 0,-2.4 0.43,-4.53 1.27,-6.41 0.83,-1.88 2.01,-3.46 3.51,-4.76 1.49,-1.3 3.29,-2.28 5.36,-2.97 2.08,-0.69 4.38,-1.04 6.89,-1.04 1.28,0 2.51,0.08 3.69,0.22 1.17,0.16 2.27,0.36 3.27,0.63l12.98 0c0.52,0 0.94,0.34 1.27,1.02 0.31,0.67 0.49,1.8 0.49,3.4zm-14.83 9.69c0,-2.19 -0.61,-3.92 -1.83,-5.14 -1.22,-1.22 -2.95,-1.83 -5.19,-1.83 -1.12,0 -2.13,0.19 -2.97,0.58 -0.86,0.38 -1.57,0.89 -2.15,1.55 -0.56,0.66 -0.98,1.43 -1.25,2.3 -0.28,0.88 -0.41,1.78 -0.41,2.72 0,2.09 0.61,3.73 1.83,4.94 1.23,1.2 2.92,1.81 5.1,1.81 1.15,0 2.17,-0.19 3.02,-0.54 0.86,-0.38 1.56,-0.88 2.13,-1.52 0.57,-0.64 1,-1.38 1.29,-2.23 0.29,-0.84 0.43,-1.72 0.43,-2.64zm2.71 32.64c0,-1.36 -0.55,-2.43 -1.65,-3.15 -1.11,-0.73 -2.61,-1.14 -4.54,-1.18l-8.22 -0.24c-0.78,0.58 -1.42,1.14 -1.89,1.68 -0.49,0.53 -0.86,1.03 -1.16,1.53 -0.28,0.48 -0.47,0.95 -0.57,1.41 -0.09,0.45 -0.14,0.94 -0.14,1.42 0,1.52 0.77,2.68 2.32,3.48 1.55,0.8 3.73,1.19 6.53,1.19 1.75,0 3.23,-0.17 4.41,-0.53 1.19,-0.35 2.15,-0.82 2.89,-1.4 0.73,-0.57 1.25,-1.22 1.56,-1.94 0.3,-0.72 0.46,-1.47 0.46,-2.27zm53.06 -4.1c0,0.42 -0.16,0.75 -0.46,1 -0.31,0.25 -0.79,0.42 -1.45,0.53 -0.66,0.11 -1.63,0.16 -2.93,0.16 -1.38,0 -2.38,-0.05 -3.01,-0.16 -0.62,-0.11 -1.08,-0.28 -1.33,-0.53 -0.26,-0.25 -0.39,-0.58 -0.39,-1l0 -3.26c-1.69,1.8 -3.6,3.2 -5.76,4.2 -2.14,1 -4.54,1.5 -7.17,1.5 -2.16,0 -4.17,-0.28 -5.98,-0.84 -1.82,-0.57 -3.39,-1.41 -4.71,-2.52 -1.34,-1.13 -2.37,-2.51 -3.11,-4.15 -0.73,-1.66 -1.09,-3.59 -1.09,-5.78 0,-2.4 0.47,-4.46 1.39,-6.22 0.94,-1.76 2.34,-3.21 4.18,-4.36 1.85,-1.15 4.14,-1.99 6.89,-2.54 2.74,-0.55 5.94,-0.83 9.57,-0.83l3.99 0 0 -2.47c0,-1.29 -0.12,-2.41 -0.39,-3.39 -0.25,-0.95 -0.69,-1.76 -1.28,-2.41 -0.6,-0.64 -1.38,-1.11 -2.38,-1.42 -0.99,-0.3 -2.23,-0.46 -3.68,-0.46 -1.93,0 -3.65,0.22 -5.16,0.65 -1.52,0.42 -2.84,0.9 -4,1.42 -1.16,0.52 -2.13,1 -2.91,1.42 -0.79,0.43 -1.41,0.65 -1.9,0.65 -0.35,0 -0.64,-0.11 -0.89,-0.32 -0.27,-0.21 -0.49,-0.53 -0.64,-0.92 -0.18,-0.39 -0.3,-0.89 -0.4,-1.47 -0.09,-0.58 -0.14,-1.22 -0.14,-1.91 0,-0.96 0.08,-1.71 0.24,-2.26 0.14,-0.54 0.44,-1.03 0.86,-1.48 0.44,-0.44 1.17,-0.93 2.25,-1.46 1.07,-0.53 2.32,-1.03 3.76,-1.49 1.44,-0.47 3.01,-0.84 4.7,-1.12 1.71,-0.3 3.46,-0.44 5.26,-0.44 3.21,0 5.95,0.31 8.24,0.94 2.27,0.62 4.14,1.59 5.6,2.89 1.47,1.3 2.55,2.98 3.23,5.03 0.67,2.03 1,4.48 1,7.28l0 27.54zm-11.37 -17.57l-4.4 0c-1.86,0 -3.44,0.14 -4.76,0.41 -1.31,0.28 -2.38,0.69 -3.21,1.25 -0.83,0.55 -1.42,1.21 -1.8,1.99 -0.39,0.78 -0.58,1.68 -0.58,2.68 0,1.72 0.55,3.07 1.63,4.04 1.08,0.98 2.58,1.47 4.51,1.47 1.61,0 3.1,-0.41 4.46,-1.24 1.36,-0.83 2.74,-2.03 4.15,-3.63l0 -6.97zm49.19 -19.71c0,1.1 -0.03,2 -0.09,2.71 -0.06,0.7 -0.16,1.25 -0.27,1.64 -0.12,0.39 -0.29,0.68 -0.48,0.83 -0.21,0.16 -0.46,0.22 -0.77,0.22 -0.23,0 -0.52,-0.04 -0.83,-0.16 -0.3,-0.1 -0.64,-0.21 -1.03,-0.34 -0.38,-0.12 -0.8,-0.23 -1.26,-0.34 -0.46,-0.11 -0.96,-0.16 -1.51,-0.16 -0.65,0 -1.29,0.13 -1.93,0.39 -0.64,0.27 -1.31,0.66 -2,1.22 -0.69,0.55 -1.41,1.29 -2.17,2.2 -0.75,0.92 -1.54,2.05 -2.41,3.39l0 25.54c0,0.3 -0.09,0.56 -0.28,0.8 -0.17,0.23 -0.48,0.42 -0.94,0.58 -0.43,0.14 -1.03,0.26 -1.75,0.34 -0.74,0.08 -1.68,0.11 -2.8,0.11 -1.13,0 -2.07,-0.03 -2.81,-0.11 -0.72,-0.08 -1.31,-0.2 -1.75,-0.34 -0.45,-0.16 -0.76,-0.35 -0.94,-0.58 -0.19,-0.24 -0.28,-0.5 -0.28,-0.8l0 -40.96c0,-0.3 0.08,-0.56 0.23,-0.8 0.14,-0.23 0.43,-0.42 0.82,-0.58 0.41,-0.14 0.91,-0.26 1.53,-0.34 0.63,-0.08 1.43,-0.11 2.37,-0.11 0.98,0 1.78,0.03 2.42,0.11 0.65,0.08 1.15,0.2 1.51,0.34 0.34,0.16 0.59,0.35 0.75,0.58 0.16,0.24 0.23,0.5 0.23,0.8l0 5.1c1.07,-1.53 2.09,-2.78 3.02,-3.77 0.96,-0.99 1.87,-1.78 2.71,-2.36 0.87,-0.58 1.73,-0.99 2.59,-1.21 0.84,-0.23 1.7,-0.34 2.57,-0.34 0.39,0 0.82,0.01 1.28,0.06 0.45,0.05 0.94,0.12 1.42,0.24 0.49,0.1 0.93,0.23 1.29,0.35 0.37,0.14 0.64,0.29 0.81,0.44 0.16,0.16 0.28,0.33 0.36,0.5 0.08,0.19 0.14,0.44 0.21,0.77 0.06,0.31 0.11,0.8 0.14,1.44 0.03,0.64 0.04,1.51 0.04,2.6zm39.88 37.14c0,0.3 -0.09,0.56 -0.28,0.8 -0.17,0.23 -0.48,0.42 -0.94,0.58 -0.44,0.14 -1.03,0.26 -1.75,0.34 -0.74,0.08 -1.68,0.11 -2.81,0.11 -1.12,0 -2.06,-0.03 -2.8,-0.11 -0.72,-0.08 -1.31,-0.2 -1.75,-0.34 -0.45,-0.16 -0.77,-0.35 -0.94,-0.58 -0.19,-0.24 -0.28,-0.5 -0.28,-0.8l0 -40.87c0,-0.29 0.09,-0.56 0.28,-0.8 0.17,-0.23 0.49,-0.43 0.94,-0.59 0.44,-0.17 1.03,-0.3 1.75,-0.39 0.74,-0.1 1.68,-0.14 2.8,-0.14 1.13,0 2.07,0.04 2.81,0.14 0.72,0.09 1.31,0.22 1.75,0.39 0.46,0.16 0.77,0.36 0.94,0.59 0.19,0.24 0.28,0.51 0.28,0.8l0 40.87zm0.94 -54.86c0,2.33 -0.47,3.93 -1.42,4.82 -0.96,0.89 -2.71,1.33 -5.3,1.33 -2.59,0 -4.36,-0.42 -5.25,-1.28 -0.91,-0.87 -1.37,-2.41 -1.37,-4.64 0,-2.33 0.47,-3.94 1.41,-4.85 0.92,-0.89 2.7,-1.35 5.31,-1.35 2.57,0 4.32,0.44 5.24,1.32 0.93,0.86 1.38,2.41 1.38,4.65zm75.69 54.86c0,0.3 -0.1,0.56 -0.28,0.8 -0.17,0.23 -0.49,0.42 -0.91,0.58 -0.44,0.14 -1.02,0.26 -1.75,0.34 -0.74,0.08 -1.68,0.11 -2.81,0.11 -1.17,0 -2.13,-0.03 -2.86,-0.11 -0.74,-0.08 -1.33,-0.2 -1.77,-0.34 -0.44,-0.16 -0.75,-0.35 -0.92,-0.58 -0.18,-0.24 -0.26,-0.5 -0.26,-0.8l0 -24.27c0,-1.38 -0.12,-2.63 -0.39,-3.76 -0.25,-1.14 -0.66,-2.11 -1.19,-2.91 -0.53,-0.81 -1.2,-1.44 -2,-1.89 -0.82,-0.44 -1.77,-0.66 -2.9,-0.66 -1.37,0 -2.77,0.53 -4.16,1.61 -1.41,1.07 -2.93,2.63 -4.57,4.67l0 27.21c0,0.3 -0.1,0.56 -0.28,0.8 -0.18,0.23 -0.49,0.42 -0.95,0.58 -0.43,0.14 -1.03,0.26 -1.76,0.34 -0.74,0.08 -1.66,0.11 -2.76,0.11 -1.14,0 -2.08,-0.03 -2.82,-0.11 -0.73,-0.08 -1.33,-0.2 -1.77,-0.34 -0.45,-0.16 -0.76,-0.35 -0.94,-0.58 -0.19,-0.24 -0.28,-0.5 -0.28,-0.8l0 -24.27c0,-1.38 -0.12,-2.63 -0.39,-3.76 -0.25,-1.14 -0.64,-2.11 -1.17,-2.91 -0.52,-0.81 -1.19,-1.44 -2.01,-1.89 -0.83,-0.44 -1.8,-0.66 -2.9,-0.66 -1.4,0 -2.8,0.53 -4.21,1.61 -1.41,1.07 -2.92,2.63 -4.54,4.67l0 27.21c0,0.3 -0.09,0.56 -0.28,0.8 -0.17,0.23 -0.48,0.42 -0.94,0.58 -0.44,0.14 -1.03,0.26 -1.75,0.34 -0.74,0.08 -1.68,0.11 -2.81,0.11 -1.12,0 -2.06,-0.03 -2.8,-0.11 -0.72,-0.08 -1.31,-0.2 -1.75,-0.34 -0.46,-0.16 -0.77,-0.35 -0.94,-0.58 -0.19,-0.24 -0.28,-0.5 -0.28,-0.8l0 -40.96c0,-0.3 0.08,-0.56 0.23,-0.8 0.14,-0.23 0.43,-0.42 0.82,-0.58 0.4,-0.14 0.9,-0.26 1.53,-0.34 0.63,-0.08 1.43,-0.11 2.37,-0.11 0.98,0 1.78,0.03 2.42,0.11 0.64,0.08 1.14,0.2 1.51,0.34 0.34,0.16 0.59,0.35 0.75,0.58 0.15,0.24 0.23,0.5 0.23,0.8l0 4.73c2.26,-2.44 4.51,-4.26 6.76,-5.48 2.26,-1.22 4.61,-1.83 7.05,-1.83 1.69,0 3.21,0.17 4.56,0.53 1.34,0.35 2.53,0.84 3.6,1.5 1.05,0.66 1.96,1.44 2.72,2.35 0.77,0.93 1.41,1.94 1.93,3.07 1.22,-1.32 2.42,-2.44 3.6,-3.38 1.17,-0.94 2.35,-1.73 3.49,-2.32 1.14,-0.59 2.29,-1.03 3.45,-1.31 1.14,-0.3 2.3,-0.44 3.5,-0.44 2.71,0 5.01,0.45 6.88,1.37 1.86,0.91 3.36,2.16 4.51,3.75 1.15,1.56 1.97,3.41 2.45,5.52 0.49,2.12 0.74,4.34 0.74,6.71l0 26.19zm46.17 0.14c0,0.42 -0.15,0.75 -0.45,1 -0.32,0.25 -0.8,0.42 -1.46,0.53 -0.66,0.11 -1.63,0.16 -2.93,0.16 -1.37,0 -2.37,-0.05 -3,-0.16 -0.63,-0.11 -1.08,-0.28 -1.33,-0.53 -0.27,-0.25 -0.39,-0.58 -0.39,-1l0 -3.26c-1.69,1.8 -3.6,3.2 -5.76,4.2 -2.15,1 -4.55,1.5 -7.18,1.5 -2.16,0 -4.16,-0.28 -5.98,-0.84 -1.81,-0.57 -3.38,-1.41 -4.71,-2.52 -1.33,-1.13 -2.37,-2.51 -3.1,-4.15 -0.74,-1.66 -1.1,-3.59 -1.1,-5.78 0,-2.4 0.47,-4.46 1.4,-6.22 0.94,-1.76 2.33,-3.21 4.18,-4.36 1.85,-1.15 4.13,-1.99 6.89,-2.54 2.74,-0.55 5.93,-0.83 9.56,-0.83l4 0 0 -2.47c0,-1.29 -0.13,-2.41 -0.4,-3.39 -0.25,-0.95 -0.68,-1.76 -1.28,-2.41 -0.59,-0.64 -1.38,-1.11 -2.38,-1.42 -0.98,-0.3 -2.22,-0.46 -3.68,-0.46 -1.92,0 -3.65,0.22 -5.15,0.65 -1.52,0.42 -2.85,0.9 -4.01,1.42 -1.16,0.52 -2.13,1 -2.91,1.42 -0.78,0.43 -1.41,0.65 -1.89,0.65 -0.35,0 -0.65,-0.11 -0.9,-0.32 -0.26,-0.21 -0.48,-0.53 -0.64,-0.92 -0.17,-0.39 -0.3,-0.89 -0.39,-1.47 -0.1,-0.58 -0.14,-1.22 -0.14,-1.91 0,-0.96 0.08,-1.71 0.23,-2.26 0.14,-0.54 0.44,-1.03 0.86,-1.48 0.44,-0.44 1.18,-0.93 2.26,-1.46 1.06,-0.53 2.32,-1.03 3.76,-1.49 1.44,-0.47 3,-0.84 4.69,-1.12 1.71,-0.3 3.46,-0.44 5.27,-0.44 3.21,0 5.95,0.31 8.23,0.94 2.27,0.62 4.15,1.59 5.61,2.89 1.47,1.3 2.55,2.98 3.22,5.03 0.67,2.03 1,4.48 1,7.28l0 27.54zm-11.36 -17.57l-4.4 0c-1.87,0 -3.45,0.14 -4.76,0.41 -1.32,0.28 -2.38,0.69 -3.21,1.25 -0.83,0.55 -1.43,1.21 -1.8,1.99 -0.4,0.78 -0.58,1.68 -0.58,2.68 0,1.72 0.55,3.07 1.63,4.04 1.08,0.98 2.58,1.47 4.5,1.47 1.62,0 3.11,-0.41 4.47,-1.24 1.36,-0.83 2.74,-2.03 4.15,-3.63l0 -6.97zm-4.08 -43.63c0.22,-0.33 0.47,-0.63 0.79,-0.86 0.29,-0.25 0.69,-0.44 1.14,-0.58 0.46,-0.14 1.03,-0.24 1.74,-0.3 0.7,-0.06 1.55,-0.1 2.57,-0.1 1.39,0 2.5,0.07 3.3,0.19 0.82,0.13 1.39,0.3 1.75,0.52 0.35,0.23 0.5,0.5 0.47,0.81 -0.03,0.3 -0.17,0.63 -0.45,0.96l-8.88 10.66c-0.25,0.31 -0.48,0.57 -0.73,0.77 -0.24,0.19 -0.55,0.36 -0.94,0.48 -0.38,0.11 -0.87,0.21 -1.44,0.27 -0.58,0.06 -1.32,0.09 -2.2,0.09 -1.06,0 -1.91,-0.04 -2.53,-0.14 -0.63,-0.09 -1.07,-0.23 -1.32,-0.44 -0.23,-0.18 -0.34,-0.45 -0.29,-0.75 0.04,-0.31 0.2,-0.65 0.48,-1.06l6.54 -10.52zm63.81 22.97c0,1.47 -0.18,2.55 -0.52,3.25 -0.33,0.71 -0.74,1.07 -1.24,1.07l-4.81 0c0.68,0.73 1.15,1.56 1.45,2.49 0.29,0.94 0.43,1.91 0.43,2.91 0,2.38 -0.4,4.49 -1.18,6.34 -0.8,1.85 -1.95,3.41 -3.44,4.68 -1.47,1.27 -3.27,2.22 -5.35,2.88 -2.1,0.66 -4.43,0.99 -7,0.99 -1.31,0 -2.56,-0.16 -3.75,-0.49 -1.21,-0.31 -2.12,-0.69 -2.76,-1.11 -0.38,0.39 -0.71,0.86 -0.99,1.43 -0.3,0.54 -0.44,1.15 -0.44,1.83 0,0.89 0.4,1.63 1.18,2.19 0.77,0.56 1.86,0.88 3.27,0.94l9.96 0.36c2.32,0.09 4.4,0.42 6.21,0.99 1.82,0.56 3.35,1.36 4.59,2.39 1.24,1.02 2.2,2.26 2.85,3.68 0.66,1.44 0.99,3.08 0.99,4.92 0,2.02 -0.46,3.91 -1.33,5.7 -0.9,1.8 -2.23,3.35 -3.99,4.66 -1.79,1.32 -4.01,2.35 -6.69,3.12 -2.68,0.76 -5.79,1.14 -9.38,1.14 -3.47,0 -6.45,-0.28 -8.92,-0.83 -2.46,-0.55 -4.48,-1.31 -6.05,-2.28 -1.58,-0.99 -2.72,-2.15 -3.44,-3.51 -0.72,-1.36 -1.08,-2.85 -1.08,-4.48 0,-1 0.12,-1.97 0.39,-2.88 0.26,-0.93 0.64,-1.8 1.14,-2.65 0.5,-0.83 1.13,-1.64 1.87,-2.39 0.73,-0.77 1.56,-1.51 2.52,-2.21 -1.32,-0.71 -2.34,-1.66 -3.06,-2.87 -0.72,-1.2 -1.08,-2.53 -1.08,-3.97 0,-1.8 0.42,-3.45 1.24,-4.93 0.83,-1.49 1.91,-2.82 3.23,-4.03 -1.08,-1.06 -1.93,-2.35 -2.57,-3.83 -0.64,-1.51 -0.97,-3.37 -0.97,-5.59 0,-2.4 0.42,-4.53 1.27,-6.41 0.82,-1.88 2,-3.46 3.5,-4.76 1.49,-1.3 3.29,-2.28 5.36,-2.97 2.08,-0.69 4.38,-1.04 6.89,-1.04 1.28,0 2.52,0.08 3.69,0.22 1.18,0.16 2.27,0.36 3.27,0.63l12.98 0c0.52,0 0.94,0.34 1.27,1.02 0.31,0.67 0.49,1.8 0.49,3.4zm-14.83 9.69c0,-2.19 -0.61,-3.92 -1.83,-5.14 -1.22,-1.22 -2.95,-1.83 -5.19,-1.83 -1.12,0 -2.13,0.19 -2.97,0.58 -0.86,0.38 -1.57,0.89 -2.14,1.55 -0.57,0.66 -0.99,1.43 -1.26,2.3 -0.28,0.88 -0.4,1.78 -0.4,2.72 0,2.09 0.61,3.73 1.83,4.94 1.22,1.2 2.91,1.81 5.09,1.81 1.15,0 2.17,-0.19 3.02,-0.54 0.86,-0.38 1.56,-0.88 2.13,-1.52 0.58,-0.64 1,-1.38 1.3,-2.23 0.28,-0.84 0.42,-1.72 0.42,-2.64zm2.71 32.64c0,-1.36 -0.55,-2.43 -1.65,-3.15 -1.11,-0.73 -2.61,-1.14 -4.54,-1.18l-8.22 -0.24c-0.78,0.58 -1.42,1.14 -1.89,1.68 -0.49,0.53 -0.86,1.03 -1.16,1.53 -0.28,0.48 -0.47,0.95 -0.56,1.41 -0.1,0.45 -0.14,0.94 -0.14,1.42 0,1.52 0.76,2.68 2.31,3.48 1.55,0.8 3.73,1.19 6.53,1.19 1.75,0 3.23,-0.17 4.42,-0.53 1.19,-0.35 2.14,-0.82 2.88,-1.4 0.73,-0.57 1.25,-1.22 1.56,-1.94 0.3,-0.72 0.46,-1.47 0.46,-2.27z"/>
   <path class="fil2" d="M543.95 76.55c0,1.42 -0.32,2.45 -0.94,3.12 -0.63,0.67 -1.49,1.02 -2.6,1.02l-24.93 0c0,1.74 0.2,3.3 0.63,4.73 0.41,1.41 1.06,2.61 1.96,3.6 0.9,0.98 2.06,1.74 3.49,2.25 1.42,0.52 3.11,0.79 5.1,0.79 2.02,0 3.79,-0.14 5.32,-0.44 1.52,-0.3 2.85,-0.61 3.97,-0.97 1.11,-0.36 2.03,-0.68 2.77,-0.97 0.73,-0.3 1.33,-0.44 1.78,-0.44 0.28,0 0.52,0.05 0.69,0.15 0.19,0.11 0.35,0.3 0.47,0.58 0.11,0.27 0.2,0.66 0.25,1.16 0.05,0.5 0.06,1.14 0.06,1.9 0,0.67 -0.01,1.25 -0.04,1.72 -0.04,0.47 -0.08,0.87 -0.15,1.2 -0.06,0.35 -0.14,0.63 -0.26,0.85 -0.12,0.23 -0.28,0.45 -0.49,0.67 -0.2,0.21 -0.73,0.51 -1.62,0.88 -0.9,0.38 -2.02,0.74 -3.4,1.1 -1.38,0.36 -2.95,0.67 -4.71,0.94 -1.77,0.26 -3.67,0.4 -5.69,0.4 -3.65,0 -6.82,-0.45 -9.56,-1.38 -2.73,-0.9 -5.01,-2.3 -6.86,-4.16 -1.83,-1.86 -3.2,-4.23 -4.1,-7.06 -0.9,-2.85 -1.35,-6.19 -1.35,-10.01 0,-3.63 0.47,-6.9 1.42,-9.83 0.94,-2.91 2.32,-5.39 4.14,-7.42 1.8,-2.03 3.99,-3.59 6.57,-4.65 2.6,-1.08 5.52,-1.61 8.76,-1.61 3.42,0 6.35,0.5 8.78,1.52 2.44,1 4.43,2.41 6,4.19 1.55,1.79 2.7,3.92 3.44,6.36 0.74,2.44 1.1,5.1 1.1,7.98l0 1.83zm-11.18 -3.28c0.09,-3.24 -0.57,-5.79 -1.96,-7.64 -1.39,-1.87 -3.54,-2.79 -6.45,-2.79 -1.47,0 -2.76,0.28 -3.84,0.83 -1.09,0.55 -2,1.28 -2.72,2.22 -0.72,0.94 -1.27,2.04 -1.65,3.31 -0.39,1.28 -0.61,2.63 -0.67,4.07l17.29 0zm59.79 24.94c0,0.3 -0.09,0.56 -0.28,0.8 -0.17,0.23 -0.49,0.42 -0.91,0.58 -0.44,0.14 -1.03,0.26 -1.78,0.34 -0.76,0.08 -1.68,0.11 -2.78,0.11 -1.14,0 -2.08,-0.03 -2.83,-0.11 -0.75,-0.08 -1.35,-0.2 -1.78,-0.34 -0.43,-0.16 -0.74,-0.35 -0.91,-0.58 -0.19,-0.24 -0.29,-0.5 -0.29,-0.8l0 -23.35c0,-1.99 -0.14,-3.55 -0.43,-4.68 -0.28,-1.14 -0.71,-2.11 -1.26,-2.91 -0.54,-0.81 -1.26,-1.44 -2.13,-1.89 -0.87,-0.44 -1.87,-0.66 -3.03,-0.66 -1.47,0 -2.95,0.53 -4.45,1.61 -1.49,1.07 -3.05,2.63 -4.66,4.67l0 27.21c0,0.3 -0.1,0.56 -0.29,0.8 -0.17,0.23 -0.48,0.42 -0.93,0.58 -0.44,0.14 -1.04,0.26 -1.76,0.34 -0.74,0.08 -1.68,0.11 -2.8,0.11 -1.13,0 -2.07,-0.03 -2.8,-0.11 -0.72,-0.08 -1.32,-0.2 -1.76,-0.34 -0.45,-0.16 -0.76,-0.35 -0.94,-0.58 -0.18,-0.24 -0.28,-0.5 -0.28,-0.8l0 -40.96c0,-0.3 0.08,-0.56 0.24,-0.8 0.14,-0.23 0.42,-0.42 0.81,-0.58 0.41,-0.14 0.91,-0.26 1.53,-0.34 0.63,-0.08 1.43,-0.11 2.37,-0.11 0.99,0 1.78,0.03 2.42,0.11 0.65,0.08 1.15,0.2 1.51,0.34 0.34,0.16 0.59,0.35 0.75,0.58 0.16,0.24 0.24,0.5 0.24,0.8l0 4.73c2.25,-2.44 4.55,-4.26 6.9,-5.48 2.33,-1.22 4.77,-1.83 7.31,-1.83 2.79,0 5.14,0.45 7.05,1.37 1.91,0.91 3.44,2.16 4.63,3.75 1.18,1.56 2.02,3.41 2.54,5.52 0.51,2.12 0.78,4.65 0.78,7.61l0 25.29zm49.1 -21.66c0,1.42 -0.31,2.45 -0.94,3.12 -0.63,0.67 -1.48,1.02 -2.6,1.02l-24.92 0c0,1.74 0.2,3.3 0.62,4.73 0.41,1.41 1.07,2.61 1.96,3.6 0.91,0.98 2.07,1.74 3.49,2.25 1.43,0.52 3.12,0.79 5.1,0.79 2.03,0 3.79,-0.14 5.33,-0.44 1.52,-0.3 2.85,-0.61 3.96,-0.97 1.11,-0.36 2.04,-0.68 2.77,-0.97 0.74,-0.3 1.33,-0.44 1.79,-0.44 0.28,0 0.51,0.05 0.69,0.15 0.18,0.11 0.34,0.3 0.47,0.58 0.1,0.27 0.2,0.66 0.25,1.16 0.04,0.5 0.06,1.14 0.06,1.9 0,0.67 -0.02,1.25 -0.05,1.72 -0.03,0.47 -0.08,0.87 -0.14,1.2 -0.06,0.35 -0.14,0.63 -0.26,0.85 -0.13,0.23 -0.29,0.45 -0.49,0.67 -0.2,0.21 -0.74,0.51 -1.63,0.88 -0.89,0.38 -2.02,0.74 -3.4,1.1 -1.37,0.36 -2.94,0.67 -4.71,0.94 -1.77,0.26 -3.66,0.4 -5.68,0.4 -3.65,0 -6.83,-0.45 -9.57,-1.38 -2.72,-0.9 -5.01,-2.3 -6.86,-4.16 -1.83,-1.86 -3.19,-4.23 -4.1,-7.06 -0.89,-2.85 -1.35,-6.19 -1.35,-10.01 0,-3.63 0.47,-6.9 1.43,-9.83 0.94,-2.91 2.32,-5.39 4.13,-7.42 1.8,-2.03 4,-3.59 6.58,-4.65 2.6,-1.08 5.51,-1.61 8.75,-1.61 3.43,0 6.36,0.5 8.78,1.52 2.45,1 4.44,2.41 6,4.19 1.55,1.79 2.71,3.92 3.44,6.36 0.74,2.44 1.1,5.1 1.1,7.98l0 1.83zm-11.18 -3.28c0.1,-3.24 -0.56,-5.79 -1.95,-7.64 -1.4,-1.87 -3.54,-2.79 -6.46,-2.79 -1.47,0 -2.75,0.28 -3.83,0.83 -1.1,0.55 -2.01,1.28 -2.73,2.22 -0.72,0.94 -1.26,2.04 -1.64,3.31 -0.39,1.28 -0.61,2.63 -0.67,4.07l17.28 0zm49.56 13.35c0,2.32 -0.44,4.37 -1.32,6.16 -0.86,1.76 -2.1,3.24 -3.69,4.44 -1.6,1.19 -3.48,2.08 -5.66,2.68 -2.17,0.59 -4.52,0.89 -7.06,0.89 -1.53,0 -3,-0.11 -4.4,-0.34 -1.39,-0.24 -2.63,-0.53 -3.74,-0.89 -1.1,-0.35 -2.02,-0.71 -2.75,-1.08 -0.74,-0.38 -1.27,-0.73 -1.6,-1.05 -0.34,-0.33 -0.61,-0.83 -0.78,-1.52 -0.19,-0.67 -0.29,-1.69 -0.29,-3.04 0,-0.88 0.03,-1.58 0.1,-2.11 0.06,-0.54 0.16,-0.97 0.26,-1.29 0.13,-0.31 0.28,-0.53 0.47,-0.64 0.18,-0.11 0.41,-0.15 0.69,-0.15 0.33,0 0.83,0.18 1.49,0.57 0.66,0.39 1.47,0.82 2.46,1.27 0.97,0.47 2.11,0.91 3.41,1.3 1.3,0.41 2.79,0.61 4.43,0.61 1.04,0 1.97,-0.11 2.77,-0.33 0.82,-0.2 1.52,-0.51 2.12,-0.92 0.59,-0.39 1.05,-0.89 1.36,-1.52 0.3,-0.61 0.45,-1.31 0.45,-2.11 0,-0.93 -0.28,-1.71 -0.84,-2.37 -0.58,-0.65 -1.33,-1.23 -2.26,-1.72 -0.94,-0.49 -2,-0.94 -3.17,-1.38 -1.18,-0.42 -2.4,-0.89 -3.64,-1.42 -1.23,-0.52 -2.46,-1.11 -3.63,-1.79 -1.17,-0.67 -2.24,-1.48 -3.18,-2.47 -0.92,-0.97 -1.67,-2.16 -2.25,-3.53 -0.57,-1.37 -0.85,-3.03 -0.85,-4.96 0,-1.95 0.39,-3.74 1.16,-5.38 0.77,-1.63 1.86,-3.04 3.3,-4.2 1.46,-1.16 3.21,-2.07 5.28,-2.71 2.08,-0.64 4.4,-0.95 6.98,-0.95 1.3,0 2.54,0.09 3.76,0.26 1.21,0.19 2.32,0.43 3.29,0.69 0.98,0.28 1.82,0.57 2.49,0.89 0.67,0.32 1.16,0.6 1.46,0.82 0.29,0.23 0.5,0.45 0.62,0.69 0.11,0.23 0.2,0.5 0.27,0.83 0.06,0.31 0.12,0.72 0.17,1.19 0.05,0.47 0.06,1.06 0.06,1.77 0,0.83 -0.01,1.5 -0.06,2.02 -0.05,0.51 -0.13,0.94 -0.24,1.23 -0.11,0.32 -0.25,0.52 -0.43,0.63 -0.19,0.11 -0.41,0.16 -0.65,0.16 -0.28,0 -0.72,-0.16 -1.29,-0.49 -0.58,-0.31 -1.32,-0.66 -2.2,-1.02 -0.87,-0.36 -1.89,-0.7 -3.04,-1.01 -1.15,-0.33 -2.47,-0.49 -3.94,-0.49 -1.05,0 -1.96,0.11 -2.72,0.31 -0.77,0.22 -1.4,0.54 -1.9,0.93 -0.49,0.39 -0.86,0.86 -1.1,1.39 -0.25,0.53 -0.37,1.11 -0.37,1.71 0,0.95 0.3,1.75 0.88,2.39 0.57,0.65 1.34,1.21 2.3,1.69 0.94,0.49 2.03,0.96 3.24,1.38 1.2,0.42 2.44,0.89 3.68,1.4 1.24,0.5 2.47,1.09 3.68,1.76 1.2,0.68 2.3,1.51 3.24,2.48 0.95,0.98 1.72,2.14 2.3,3.51 0.58,1.36 0.88,2.97 0.88,4.83z"/>
  </g>
 </g>
</svg>
