<?xml version="1.0" encoding="UTF-8"?>
<!DOCTYPE svg PUBLIC "-//W3C//DTD SVG 1.1//EN" "http://www.w3.org/Graphics/SVG/1.1/DTD/svg11.dtd">
<!-- Creator: CorelDRAW -->
<svg xmlns="http://www.w3.org/2000/svg" xml:space="preserve" width="250px" height="48px" version="1.1" style="shape-rendering:geometricPrecision; text-rendering:geometricPrecision; image-rendering:optimizeQuality; fill-rule:evenodd; clip-rule:evenodd"
viewBox="0 0 249.97 48.26"
 xmlns:xlink="http://www.w3.org/1999/xlink"
 xmlns:xodm="http://www.corel.com/coreldraw/odm/2003">
 <defs>
  <style type="text/css">
   <![CDATA[
    .fil9 {fill:#008EBE}
    .fil10 {fill:#EF5070}
    .fil1 {fill:#D43283;fill-rule:nonzero}
    .fil0 {fill:#003152;fill-rule:nonzero}
    .fil2 {fill:#008EBE;fill-rule:nonzero}
    .fil3 {fill:#00B0B7;fill-rule:nonzero}
    .fil5 {fill:#B3B3B3;fill-rule:nonzero}
    .fil7 {fill:#D43283;fill-rule:nonzero}
    .fil6 {fill:#EF5070;fill-rule:nonzero}
    .fil4 {fill:#F5843F;fill-rule:nonzero}
    .fil8 {fill:white;fill-rule:nonzero}
    .fil11 {fill:#003152;fill-opacity:0.800000}
   ]]>
  </style>
 </defs>
 <g id="Capa_x0020_1">
  <metadata id="CorelCorpID_0Corel-Layer"/>
  <path class="fil0" d="M85.9 47.13c0,0.13 -0.03,0.24 -0.11,0.35 -0.07,0.1 -0.2,0.18 -0.39,0.25 -0.18,0.06 -0.43,0.11 -0.74,0.15 -0.31,0.04 -0.71,0.06 -1.18,0.06 -0.47,0 -0.86,-0.02 -1.17,-0.06 -0.31,-0.04 -0.55,-0.09 -0.74,-0.15 -0.17,-0.07 -0.31,-0.15 -0.38,-0.25 -0.08,-0.11 -0.12,-0.22 -0.12,-0.35l0 -20.35 -0.04 0 -7.21 20.33c-0.06,0.17 -0.13,0.3 -0.25,0.42 -0.12,0.11 -0.27,0.19 -0.48,0.26 -0.2,0.06 -0.45,0.11 -0.76,0.12 -0.31,0.02 -0.68,0.03 -1.12,0.03 -0.44,0 -0.81,-0.01 -1.12,-0.04 -0.31,-0.04 -0.56,-0.09 -0.76,-0.16 -0.2,-0.08 -0.36,-0.16 -0.48,-0.26 -0.11,-0.11 -0.19,-0.23 -0.23,-0.37l-6.96 -20.33 -0.04 0 0 20.35c0,0.13 -0.04,0.24 -0.11,0.35 -0.07,0.1 -0.2,0.18 -0.39,0.25 -0.2,0.06 -0.45,0.11 -0.75,0.15 -0.31,0.04 -0.7,0.06 -1.17,0.06 -0.47,0 -0.86,-0.02 -1.17,-0.06 -0.31,-0.04 -0.56,-0.09 -0.74,-0.15 -0.19,-0.07 -0.32,-0.15 -0.39,-0.25 -0.07,-0.11 -0.11,-0.22 -0.11,-0.35l0 -22.27c0,-0.66 0.17,-1.16 0.52,-1.51 0.35,-0.35 0.81,-0.52 1.4,-0.52l3.32 0c0.6,0 1.11,0.05 1.53,0.15 0.43,0.09 0.8,0.25 1.11,0.48 0.3,0.22 0.57,0.52 0.77,0.89 0.2,0.37 0.39,0.82 0.54,1.36l5.39 14.89 0.07 0 5.58 -14.86c0.16,-0.54 0.35,-0.99 0.55,-1.37 0.2,-0.37 0.43,-0.67 0.7,-0.9 0.26,-0.23 0.58,-0.4 0.93,-0.49 0.36,-0.1 0.79,-0.15 1.26,-0.15l3.43 0c0.35,0 0.64,0.05 0.89,0.14 0.25,0.08 0.47,0.22 0.62,0.39 0.17,0.18 0.29,0.39 0.37,0.64 0.09,0.25 0.13,0.54 0.13,0.86l0 22.27z"/>
  <path id="_1" class="fil0" d="M106.98 38.06c0,0.59 -0.14,1.02 -0.4,1.31 -0.26,0.28 -0.63,0.43 -1.09,0.43l-10.5 0c0,0.73 0.09,1.39 0.27,1.99 0.17,0.59 0.45,1.1 0.82,1.51 0.38,0.42 0.87,0.73 1.47,0.95 0.6,0.22 1.31,0.33 2.15,0.33 0.85,0 1.59,-0.06 2.24,-0.18 0.64,-0.13 1.2,-0.26 1.67,-0.41 0.47,-0.15 0.85,-0.29 1.16,-0.41 0.31,-0.13 0.56,-0.19 0.76,-0.19 0.11,0 0.21,0.02 0.29,0.07 0.07,0.05 0.14,0.12 0.19,0.24 0.05,0.12 0.09,0.28 0.11,0.49 0.02,0.21 0.03,0.48 0.03,0.8 0,0.28 -0.01,0.53 -0.02,0.72 -0.02,0.2 -0.04,0.37 -0.06,0.51 -0.03,0.15 -0.06,0.26 -0.12,0.36 -0.05,0.1 -0.11,0.19 -0.2,0.28 -0.09,0.09 -0.31,0.21 -0.69,0.37 -0.37,0.16 -0.85,0.31 -1.43,0.46 -0.58,0.15 -1.24,0.28 -1.98,0.4 -0.74,0.11 -1.54,0.17 -2.39,0.17 -1.54,0 -2.88,-0.19 -4.03,-0.58 -1.15,-0.38 -2.11,-0.97 -2.89,-1.76 -0.77,-0.78 -1.34,-1.77 -1.72,-2.97 -0.38,-1.2 -0.57,-2.6 -0.57,-4.21 0,-1.53 0.2,-2.91 0.6,-4.14 0.4,-1.22 0.98,-2.27 1.74,-3.12 0.76,-0.86 1.68,-1.51 2.77,-1.96 1.09,-0.45 2.32,-0.68 3.68,-0.68 1.45,0 2.68,0.21 3.7,0.64 1.03,0.42 1.87,1.02 2.52,1.77 0.66,0.75 1.14,1.64 1.45,2.67 0.31,1.03 0.47,2.15 0.47,3.36l0 0.78zm-4.71 -1.39c0.04,-1.36 -0.24,-2.44 -0.82,-3.22 -0.59,-0.78 -1.49,-1.17 -2.72,-1.17 -0.62,0 -1.16,0.12 -1.61,0.35 -0.47,0.23 -0.85,0.54 -1.15,0.94 -0.3,0.39 -0.53,0.85 -0.69,1.39 -0.17,0.54 -0.26,1.1 -0.29,1.71l7.28 0zm-2.74 -15.2c0.09,-0.14 0.2,-0.27 0.33,-0.37 0.12,-0.1 0.29,-0.18 0.48,-0.24 0.19,-0.06 0.43,-0.1 0.73,-0.13 0.3,-0.02 0.65,-0.04 1.08,-0.04 0.59,0 1.06,0.03 1.39,0.08 0.34,0.06 0.59,0.13 0.74,0.22 0.14,0.1 0.21,0.21 0.2,0.34 -0.02,0.13 -0.07,0.27 -0.19,0.41l-3.74 4.48c-0.11,0.14 -0.2,0.24 -0.31,0.33 -0.1,0.08 -0.23,0.15 -0.4,0.2 -0.15,0.05 -0.36,0.09 -0.6,0.11 -0.25,0.03 -0.56,0.04 -0.92,0.04 -0.45,0 -0.81,-0.02 -1.07,-0.06 -0.27,-0.04 -0.45,-0.09 -0.56,-0.18 -0.09,-0.08 -0.14,-0.19 -0.12,-0.32 0.02,-0.13 0.08,-0.27 0.2,-0.45l2.76 -4.42z"/>
  <path id="_2" class="fil0" d="M127.32 47.17c0,0.14 -0.03,0.26 -0.1,0.36 -0.06,0.1 -0.17,0.17 -0.32,0.24 -0.16,0.06 -0.37,0.11 -0.63,0.13 -0.27,0.03 -0.59,0.04 -0.97,0.04 -0.42,0 -0.75,-0.01 -1.01,-0.04 -0.26,-0.02 -0.46,-0.07 -0.63,-0.13 -0.15,-0.07 -0.27,-0.15 -0.34,-0.24 -0.07,-0.1 -0.11,-0.22 -0.11,-0.37l0 -1.91c-0.88,0.95 -1.82,1.69 -2.79,2.22 -0.97,0.52 -2.05,0.79 -3.24,0.79 -1.31,0 -2.42,-0.26 -3.32,-0.77 -0.91,-0.5 -1.65,-1.19 -2.22,-2.05 -0.58,-0.86 -0.99,-1.87 -1.25,-3.02 -0.26,-1.16 -0.39,-2.37 -0.39,-3.64 0,-1.53 0.17,-2.91 0.5,-4.13 0.32,-1.22 0.8,-2.26 1.43,-3.13 0.63,-0.86 1.42,-1.52 2.36,-1.99 0.94,-0.46 2.02,-0.69 3.24,-0.69 0.97,0 1.84,0.2 2.63,0.59 0.79,0.39 1.57,0.97 2.34,1.72l0 -9.31c0,-0.13 0.03,-0.24 0.1,-0.35 0.08,-0.1 0.2,-0.19 0.39,-0.25 0.19,-0.08 0.44,-0.13 0.74,-0.17 0.31,-0.04 0.7,-0.06 1.18,-0.06 0.47,0 0.87,0.02 1.18,0.06 0.3,0.04 0.55,0.09 0.73,0.17 0.18,0.06 0.31,0.15 0.38,0.25 0.08,0.11 0.12,0.22 0.12,0.35l0 25.33zm-4.82 -11.51c-0.69,-0.88 -1.37,-1.55 -2,-2.01 -0.64,-0.47 -1.3,-0.7 -2,-0.7 -0.63,0 -1.18,0.16 -1.63,0.48 -0.46,0.31 -0.83,0.73 -1.1,1.26 -0.28,0.53 -0.49,1.12 -0.62,1.76 -0.14,0.66 -0.21,1.32 -0.21,2 0,0.73 0.06,1.42 0.18,2.1 0.11,0.69 0.31,1.29 0.57,1.83 0.26,0.53 0.61,0.96 1.05,1.28 0.44,0.33 0.99,0.49 1.66,0.49 0.33,0 0.66,-0.05 0.98,-0.15 0.32,-0.1 0.63,-0.25 0.96,-0.47 0.33,-0.22 0.67,-0.51 1.02,-0.86 0.35,-0.36 0.73,-0.79 1.14,-1.3l0 -5.71z"/>
  <path id="_3" class="fil0" d="M137.08 47.17c0,0.13 -0.04,0.24 -0.12,0.34 -0.08,0.1 -0.21,0.17 -0.4,0.24 -0.18,0.06 -0.43,0.11 -0.74,0.15 -0.31,0.03 -0.7,0.04 -1.18,0.04 -0.47,0 -0.87,-0.01 -1.18,-0.04 -0.3,-0.04 -0.55,-0.09 -0.73,-0.15 -0.2,-0.07 -0.33,-0.14 -0.4,-0.24 -0.08,-0.1 -0.12,-0.21 -0.12,-0.34l0 -17.2c0,-0.13 0.04,-0.24 0.12,-0.34 0.07,-0.1 0.2,-0.18 0.4,-0.25 0.18,-0.07 0.43,-0.12 0.73,-0.16 0.31,-0.04 0.71,-0.06 1.18,-0.06 0.48,0 0.87,0.02 1.18,0.06 0.31,0.04 0.56,0.09 0.74,0.16 0.19,0.07 0.32,0.15 0.4,0.25 0.08,0.1 0.12,0.21 0.12,0.34l0 17.2zm0.39 -23.09c0,0.98 -0.2,1.65 -0.6,2.03 -0.4,0.37 -1.14,0.56 -2.23,0.56 -1.09,0 -1.83,-0.18 -2.21,-0.54 -0.38,-0.37 -0.57,-1.02 -0.57,-1.96 0,-0.98 0.19,-1.66 0.59,-2.04 0.39,-0.37 1.13,-0.57 2.23,-0.57 1.08,0 1.82,0.19 2.21,0.56 0.39,0.36 0.58,1.01 0.58,1.96z"/>
  <path id="_4" class="fil0" d="M154.94 44.42c0,0.34 -0.01,0.61 -0.03,0.85 -0.02,0.22 -0.05,0.41 -0.08,0.57 -0.03,0.15 -0.07,0.28 -0.12,0.37 -0.04,0.1 -0.14,0.22 -0.29,0.37 -0.16,0.15 -0.43,0.33 -0.79,0.54 -0.38,0.21 -0.8,0.41 -1.28,0.58 -0.48,0.16 -0.99,0.3 -1.55,0.4 -0.56,0.1 -1.14,0.16 -1.74,0.16 -1.32,0 -2.49,-0.21 -3.51,-0.62 -1.03,-0.41 -1.89,-1.02 -2.59,-1.83 -0.69,-0.8 -1.22,-1.79 -1.57,-2.95 -0.35,-1.16 -0.53,-2.49 -0.53,-3.98 0,-1.73 0.22,-3.22 0.65,-4.48 0.43,-1.26 1.03,-2.3 1.8,-3.12 0.77,-0.82 1.69,-1.44 2.74,-1.84 1.06,-0.4 2.22,-0.6 3.48,-0.6 0.52,0 1.02,0.05 1.52,0.14 0.49,0.09 0.95,0.21 1.39,0.36 0.43,0.16 0.82,0.33 1.15,0.52 0.35,0.2 0.59,0.37 0.73,0.51 0.14,0.14 0.24,0.26 0.3,0.36 0.05,0.09 0.1,0.22 0.13,0.37 0.04,0.16 0.06,0.35 0.08,0.58 0.02,0.23 0.03,0.5 0.03,0.82 0,0.75 -0.06,1.28 -0.19,1.58 -0.13,0.3 -0.3,0.46 -0.5,0.46 -0.22,0 -0.46,-0.1 -0.7,-0.27 -0.25,-0.18 -0.54,-0.39 -0.87,-0.6 -0.33,-0.22 -0.73,-0.43 -1.2,-0.6 -0.46,-0.18 -1.01,-0.27 -1.66,-0.27 -1.26,0 -2.22,0.48 -2.9,1.45 -0.66,0.98 -1,2.4 -1,4.28 0,0.92 0.09,1.74 0.25,2.45 0.17,0.71 0.42,1.3 0.75,1.77 0.33,0.48 0.74,0.84 1.23,1.08 0.5,0.24 1.07,0.35 1.73,0.35 0.67,0 1.25,-0.09 1.73,-0.3 0.48,-0.2 0.9,-0.42 1.27,-0.66 0.35,-0.25 0.65,-0.47 0.9,-0.67 0.25,-0.2 0.45,-0.3 0.62,-0.3 0.12,0 0.21,0.03 0.29,0.1 0.08,0.06 0.14,0.18 0.18,0.35 0.05,0.18 0.08,0.4 0.11,0.67 0.02,0.27 0.04,0.62 0.04,1.05z"/>
  <path id="_5" class="fil0" d="M175.68 38.38c0,1.46 -0.19,2.8 -0.58,4.01 -0.39,1.21 -0.97,2.25 -1.76,3.13 -0.79,0.87 -1.77,1.54 -2.95,2.03 -1.19,0.47 -2.57,0.71 -4.16,0.71 -1.53,0 -2.86,-0.21 -4,-0.64 -1.13,-0.42 -2.07,-1.04 -2.82,-1.85 -0.74,-0.81 -1.3,-1.81 -1.66,-3 -0.36,-1.18 -0.54,-2.53 -0.54,-4.05 0,-1.46 0.2,-2.81 0.59,-4.02 0.39,-1.22 0.98,-2.26 1.77,-3.13 0.78,-0.86 1.77,-1.54 2.95,-2.02 1.17,-0.47 2.55,-0.71 4.14,-0.71 1.54,0 2.88,0.21 4.02,0.63 1.13,0.42 2.07,1.03 2.8,1.84 0.75,0.81 1.3,1.81 1.66,2.99 0.36,1.18 0.54,2.54 0.54,4.08zm-4.98 0.19c0,-0.85 -0.07,-1.64 -0.21,-2.35 -0.14,-0.72 -0.36,-1.34 -0.69,-1.86 -0.32,-0.53 -0.75,-0.94 -1.29,-1.24 -0.54,-0.3 -1.21,-0.44 -2.03,-0.44 -0.72,0 -1.35,0.13 -1.9,0.39 -0.54,0.27 -0.99,0.65 -1.34,1.16 -0.35,0.51 -0.61,1.12 -0.78,1.83 -0.18,0.72 -0.27,1.53 -0.27,2.45 0,0.85 0.08,1.63 0.21,2.35 0.15,0.71 0.38,1.33 0.7,1.86 0.31,0.53 0.74,0.94 1.29,1.23 0.54,0.29 1.21,0.43 2.02,0.43 0.73,0 1.37,-0.13 1.92,-0.39 0.54,-0.27 0.99,-0.65 1.34,-1.15 0.35,-0.51 0.6,-1.11 0.78,-1.83 0.16,-0.71 0.25,-1.52 0.25,-2.44z"/>
  <path class="fil0" d="M76.24 18.8c0,0.09 -0.03,0.17 -0.08,0.24 -0.05,0.07 -0.15,0.12 -0.27,0.17 -0.14,0.04 -0.31,0.07 -0.53,0.1 -0.22,0.02 -0.5,0.03 -0.84,0.03 -0.35,0 -0.63,-0.01 -0.85,-0.03 -0.22,-0.03 -0.4,-0.06 -0.53,-0.1 -0.13,-0.05 -0.23,-0.1 -0.28,-0.17 -0.05,-0.07 -0.07,-0.15 -0.07,-0.24l0 -7.13c0,-0.41 -0.04,-0.78 -0.12,-1.11 -0.07,-0.33 -0.19,-0.62 -0.35,-0.85 -0.16,-0.24 -0.36,-0.43 -0.6,-0.56 -0.25,-0.13 -0.53,-0.19 -0.87,-0.19 -0.41,0 -0.83,0.15 -1.24,0.47 -0.42,0.31 -0.88,0.77 -1.37,1.37l0 8c0,0.09 -0.03,0.17 -0.08,0.24 -0.05,0.07 -0.15,0.12 -0.28,0.17 -0.13,0.04 -0.31,0.07 -0.53,0.1 -0.22,0.02 -0.5,0.03 -0.83,0.03 -0.34,0 -0.62,-0.01 -0.84,-0.03 -0.22,-0.03 -0.4,-0.06 -0.53,-0.1 -0.13,-0.05 -0.23,-0.1 -0.28,-0.17 -0.05,-0.07 -0.08,-0.15 -0.08,-0.24l0 -7.13c0,-0.41 -0.04,-0.78 -0.12,-1.11 -0.07,-0.33 -0.19,-0.62 -0.35,-0.85 -0.15,-0.24 -0.35,-0.43 -0.6,-0.56 -0.25,-0.13 -0.54,-0.19 -0.86,-0.19 -0.42,0 -0.84,0.15 -1.26,0.47 -0.42,0.31 -0.88,0.77 -1.36,1.37l0 8c0,0.09 -0.03,0.17 -0.08,0.24 -0.05,0.07 -0.15,0.12 -0.28,0.17 -0.13,0.04 -0.31,0.07 -0.53,0.1 -0.22,0.02 -0.5,0.03 -0.84,0.03 -0.33,0 -0.61,-0.01 -0.83,-0.03 -0.22,-0.03 -0.4,-0.06 -0.53,-0.1 -0.13,-0.05 -0.23,-0.1 -0.28,-0.17 -0.05,-0.07 -0.08,-0.15 -0.08,-0.24l0 -12.04c0,-0.09 0.02,-0.16 0.07,-0.23 0.04,-0.07 0.13,-0.13 0.24,-0.17 0.12,-0.04 0.27,-0.08 0.46,-0.1 0.19,-0.03 0.43,-0.04 0.71,-0.04 0.29,0 0.53,0.01 0.72,0.04 0.19,0.02 0.34,0.06 0.45,0.1 0.1,0.04 0.18,0.1 0.23,0.17 0.04,0.07 0.07,0.14 0.07,0.23l0 1.39c0.67,-0.72 1.34,-1.25 2.02,-1.61 0.67,-0.36 1.37,-0.54 2.1,-0.54 0.51,0 0.96,0.05 1.36,0.16 0.41,0.1 0.76,0.25 1.08,0.44 0.31,0.19 0.58,0.42 0.81,0.69 0.23,0.27 0.42,0.57 0.58,0.9 0.36,-0.38 0.72,-0.71 1.08,-0.99 0.35,-0.28 0.7,-0.51 1.04,-0.68 0.34,-0.18 0.68,-0.31 1.03,-0.39 0.34,-0.09 0.68,-0.13 1.05,-0.13 0.8,0 1.49,0.14 2.05,0.41 0.56,0.26 1,0.63 1.35,1.1 0.34,0.46 0.59,1 0.73,1.62 0.15,0.62 0.22,1.28 0.22,1.97l0 7.7z"/>
  <path id="_1_45" class="fil0" d="M90.91 12.44c0,0.41 -0.1,0.71 -0.28,0.91 -0.19,0.2 -0.45,0.3 -0.78,0.3l-7.45 0c0,0.51 0.06,0.97 0.19,1.39 0.12,0.42 0.32,0.77 0.58,1.06 0.28,0.29 0.62,0.51 1.05,0.66 0.42,0.15 0.93,0.23 1.52,0.23 0.61,0 1.13,-0.04 1.59,-0.13 0.46,-0.08 0.85,-0.18 1.19,-0.28 0.33,-0.11 0.6,-0.2 0.82,-0.29 0.22,-0.08 0.4,-0.13 0.54,-0.13 0.08,0 0.15,0.02 0.2,0.05 0.06,0.03 0.11,0.09 0.14,0.17 0.04,0.08 0.06,0.19 0.08,0.34 0.01,0.15 0.02,0.34 0.02,0.56 0,0.2 -0.01,0.37 -0.02,0.5 -0.01,0.14 -0.02,0.26 -0.04,0.36 -0.02,0.1 -0.04,0.18 -0.08,0.25 -0.04,0.07 -0.08,0.13 -0.14,0.2 -0.06,0.06 -0.22,0.14 -0.49,0.25 -0.27,0.11 -0.6,0.22 -1.01,0.33 -0.42,0.1 -0.88,0.19 -1.41,0.27 -0.53,0.08 -1.1,0.12 -1.7,0.12 -1.09,0 -2.04,-0.13 -2.86,-0.4 -0.81,-0.27 -1.5,-0.68 -2.05,-1.23 -0.55,-0.55 -0.95,-1.24 -1.22,-2.07 -0.27,-0.84 -0.41,-1.82 -0.41,-2.94 0,-1.07 0.14,-2.03 0.43,-2.9 0.28,-0.85 0.69,-1.58 1.23,-2.18 0.54,-0.6 1.2,-1.05 1.97,-1.36 0.78,-0.32 1.65,-0.48 2.61,-0.48 1.03,0 1.9,0.15 2.63,0.45 0.73,0.29 1.32,0.71 1.79,1.23 0.46,0.53 0.81,1.15 1.03,1.87 0.22,0.72 0.33,1.5 0.33,2.35l0 0.54zm-3.34 -0.97c0.02,-0.95 -0.17,-1.7 -0.59,-2.25 -0.41,-0.54 -1.06,-0.82 -1.93,-0.82 -0.44,0 -0.82,0.09 -1.14,0.25 -0.33,0.16 -0.6,0.38 -0.82,0.65 -0.21,0.28 -0.37,0.6 -0.49,0.97 -0.11,0.38 -0.18,0.78 -0.2,1.2l5.17 0zm-1.95 -10.62c0.07,-0.09 0.14,-0.18 0.23,-0.25 0.09,-0.07 0.21,-0.13 0.35,-0.17 0.13,-0.04 0.3,-0.07 0.52,-0.09 0.21,-0.02 0.46,-0.03 0.76,-0.03 0.42,0 0.75,0.02 0.99,0.06 0.24,0.04 0.42,0.09 0.52,0.15 0.11,0.07 0.15,0.15 0.14,0.24 -0.01,0.09 -0.05,0.18 -0.13,0.28l-2.65 3.14c-0.08,0.09 -0.15,0.16 -0.22,0.22 -0.07,0.06 -0.17,0.11 -0.28,0.14 -0.12,0.04 -0.26,0.06 -0.44,0.08 -0.17,0.02 -0.39,0.03 -0.65,0.03 -0.32,0 -0.57,-0.01 -0.76,-0.04 -0.19,-0.03 -0.32,-0.07 -0.39,-0.13 -0.07,-0.06 -0.1,-0.13 -0.09,-0.22 0.01,-0.09 0.06,-0.2 0.15,-0.31l1.95 -3.1z"/>
  <path id="_2_46" class="fil0" d="M103.94 18.56c0.08,0.15 0.11,0.28 0.1,0.38 0,0.1 -0.07,0.17 -0.19,0.24 -0.13,0.06 -0.33,0.1 -0.59,0.13 -0.27,0.02 -0.62,0.03 -1.06,0.03 -0.41,0 -0.74,0 -0.99,-0.02 -0.25,-0.01 -0.45,-0.04 -0.59,-0.08 -0.14,-0.04 -0.24,-0.09 -0.31,-0.15 -0.07,-0.06 -0.12,-0.13 -0.16,-0.22l-2.27 -4.28 -2.25 4.28c-0.04,0.09 -0.09,0.16 -0.15,0.22 -0.06,0.06 -0.16,0.11 -0.3,0.15 -0.13,0.04 -0.32,0.07 -0.55,0.08 -0.24,0.02 -0.55,0.02 -0.94,0.02 -0.4,0 -0.72,-0.01 -0.96,-0.03 -0.24,-0.03 -0.42,-0.07 -0.52,-0.13 -0.11,-0.07 -0.17,-0.14 -0.18,-0.24 0,-0.1 0.04,-0.23 0.12,-0.38l3.38 -5.93 -3.11 -5.56c-0.09,-0.16 -0.13,-0.29 -0.13,-0.41 -0.01,-0.11 0.05,-0.2 0.17,-0.26 0.12,-0.07 0.31,-0.11 0.57,-0.14 0.26,-0.02 0.61,-0.04 1.06,-0.04 0.41,0 0.73,0.01 0.97,0.02 0.24,0.02 0.43,0.04 0.57,0.07 0.14,0.02 0.24,0.07 0.3,0.12 0.07,0.06 0.12,0.13 0.16,0.23l2.18 4.02 2.15 -4.02c0.03,-0.08 0.07,-0.14 0.12,-0.19 0.06,-0.06 0.14,-0.1 0.26,-0.14 0.12,-0.03 0.28,-0.06 0.49,-0.08 0.2,-0.02 0.49,-0.03 0.84,-0.03 0.41,0 0.73,0.01 0.97,0.03 0.25,0.02 0.42,0.06 0.52,0.12 0.11,0.07 0.16,0.15 0.16,0.26 -0.01,0.12 -0.06,0.27 -0.16,0.44l-3.03 5.47 3.35 6.02z"/>
  <path id="_3_47" class="fil0" d="M109.67 18.8c0,0.09 -0.03,0.17 -0.09,0.24 -0.05,0.07 -0.14,0.12 -0.28,0.17 -0.13,0.04 -0.31,0.07 -0.52,0.1 -0.22,0.02 -0.5,0.03 -0.84,0.03 -0.34,0 -0.62,-0.01 -0.84,-0.03 -0.21,-0.03 -0.39,-0.06 -0.52,-0.1 -0.14,-0.05 -0.23,-0.1 -0.28,-0.17 -0.06,-0.07 -0.09,-0.15 -0.09,-0.24l0 -12.01c0,-0.09 0.03,-0.17 0.09,-0.24 0.05,-0.06 0.14,-0.12 0.28,-0.17 0.13,-0.05 0.31,-0.09 0.52,-0.12 0.22,-0.02 0.5,-0.04 0.84,-0.04 0.34,0 0.62,0.02 0.84,0.04 0.21,0.03 0.39,0.07 0.52,0.12 0.14,0.05 0.23,0.11 0.28,0.17 0.06,0.07 0.09,0.15 0.09,0.24l0 12.01zm0.28 -16.13c0,0.69 -0.14,1.16 -0.43,1.42 -0.28,0.26 -0.81,0.39 -1.58,0.39 -0.78,0 -1.31,-0.12 -1.57,-0.37 -0.27,-0.26 -0.41,-0.71 -0.41,-1.37 0,-0.68 0.14,-1.16 0.42,-1.42 0.28,-0.27 0.81,-0.4 1.59,-0.4 0.77,0 1.29,0.13 1.57,0.39 0.27,0.25 0.41,0.71 0.41,1.36z"/>
  <path id="_4_48" class="fil0" d="M122.34 16.88c0,0.24 0,0.43 -0.01,0.59 -0.02,0.16 -0.04,0.29 -0.06,0.4 -0.02,0.11 -0.05,0.2 -0.08,0.26 -0.04,0.07 -0.11,0.16 -0.21,0.26 -0.12,0.1 -0.3,0.23 -0.57,0.38 -0.26,0.15 -0.56,0.28 -0.9,0.4 -0.34,0.11 -0.71,0.21 -1.1,0.28 -0.4,0.07 -0.81,0.11 -1.23,0.11 -0.94,0 -1.78,-0.14 -2.5,-0.43 -0.73,-0.29 -1.34,-0.71 -1.84,-1.28 -0.49,-0.56 -0.86,-1.25 -1.11,-2.06 -0.25,-0.81 -0.38,-1.73 -0.38,-2.78 0,-1.2 0.16,-2.25 0.46,-3.12 0.31,-0.88 0.73,-1.61 1.28,-2.18 0.55,-0.58 1.2,-1.01 1.95,-1.29 0.75,-0.28 1.57,-0.42 2.47,-0.42 0.36,0 0.72,0.03 1.07,0.1 0.36,0.06 0.68,0.15 0.99,0.25 0.31,0.11 0.58,0.23 0.82,0.37 0.24,0.13 0.42,0.25 0.51,0.35 0.11,0.1 0.18,0.18 0.22,0.25 0.04,0.07 0.07,0.16 0.09,0.26 0.03,0.11 0.05,0.24 0.06,0.4 0.01,0.16 0.02,0.35 0.02,0.58 0,0.52 -0.04,0.89 -0.14,1.1 -0.09,0.21 -0.21,0.32 -0.35,0.32 -0.16,0 -0.33,-0.07 -0.5,-0.19 -0.17,-0.12 -0.38,-0.27 -0.62,-0.42 -0.23,-0.15 -0.52,-0.29 -0.84,-0.42 -0.33,-0.12 -0.72,-0.19 -1.18,-0.19 -0.9,0 -1.58,0.34 -2.06,1.02 -0.47,0.68 -0.71,1.68 -0.71,2.99 0,0.64 0.06,1.21 0.18,1.71 0.12,0.49 0.29,0.91 0.52,1.24 0.24,0.33 0.53,0.58 0.88,0.75 0.36,0.16 0.76,0.25 1.23,0.25 0.47,0 0.88,-0.07 1.23,-0.21 0.34,-0.14 0.64,-0.3 0.89,-0.47 0.26,-0.17 0.47,-0.33 0.65,-0.46 0.17,-0.15 0.32,-0.22 0.43,-0.22 0.09,0 0.15,0.03 0.21,0.07 0.06,0.05 0.1,0.13 0.13,0.25 0.03,0.13 0.06,0.28 0.08,0.47 0.02,0.19 0.02,0.43 0.02,0.73z"/>
  <path id="_5_49" class="fil0" d="M137.07 12.66c0,1.02 -0.14,1.96 -0.41,2.8 -0.28,0.85 -0.69,1.57 -1.25,2.19 -0.56,0.61 -1.26,1.08 -2.1,1.41 -0.84,0.34 -1.82,0.5 -2.95,0.5 -1.09,0 -2.03,-0.15 -2.84,-0.45 -0.8,-0.29 -1.47,-0.72 -2,-1.29 -0.53,-0.56 -0.92,-1.26 -1.18,-2.09 -0.25,-0.82 -0.38,-1.77 -0.38,-2.83 0,-1.02 0.14,-1.96 0.42,-2.81 0.28,-0.85 0.69,-1.57 1.25,-2.18 0.56,-0.61 1.26,-1.07 2.09,-1.41 0.84,-0.33 1.82,-0.5 2.94,-0.5 1.1,0 2.05,0.15 2.86,0.44 0.8,0.29 1.47,0.72 1.99,1.29 0.53,0.56 0.92,1.26 1.17,2.09 0.26,0.82 0.39,1.77 0.39,2.84zm-3.54 0.14c0,-0.6 -0.05,-1.15 -0.14,-1.64 -0.1,-0.5 -0.26,-0.94 -0.5,-1.31 -0.23,-0.36 -0.53,-0.65 -0.91,-0.86 -0.38,-0.21 -0.86,-0.31 -1.44,-0.31 -0.51,0 -0.96,0.09 -1.35,0.28 -0.38,0.18 -0.7,0.45 -0.95,0.81 -0.25,0.35 -0.44,0.78 -0.56,1.28 -0.12,0.5 -0.18,1.06 -0.18,1.7 0,0.6 0.05,1.15 0.15,1.64 0.1,0.5 0.26,0.94 0.49,1.3 0.22,0.37 0.53,0.66 0.91,0.86 0.39,0.2 0.86,0.3 1.43,0.3 0.53,0 0.98,-0.09 1.37,-0.27 0.38,-0.19 0.7,-0.45 0.95,-0.8 0.25,-0.36 0.43,-0.78 0.55,-1.28 0.12,-0.5 0.18,-1.06 0.18,-1.7z"/>
  <path class="fil1" d="M1.48 4.51l0 7.16c0,1.67 1.36,3.02 3.03,3.02l7.16 0c1.67,0 3.02,-1.35 3.02,-3.02l0 -7.16c0,-1.67 -1.35,-3.03 -3.02,-3.03l-7.16 0c-1.67,0 -3.03,1.36 -3.03,3.03z"/>
  <path class="fil2" d="M0.89 26.68l5.06 5.07c1.18,1.18 3.1,1.18 4.28,0l5.06 -5.07c1.18,-1.18 1.18,-3.09 0,-4.27l-5.06 -5.07c-1.18,-1.18 -3.1,-1.18 -4.28,0l-5.06 5.07c-1.18,1.18 -1.18,3.09 0,4.27z"/>
  <path class="fil3" d="M31.93 5.95l-5.07 -5.06c-1.18,-1.18 -3.09,-1.18 -4.27,0l-5.07 5.06c-1.18,1.18 -1.18,3.1 0,4.28l5.07 5.06c1.18,1.18 3.09,1.18 4.27,0l5.07 -5.06c1.18,-1.18 1.18,-3.1 0,-4.28z"/>
  <path class="fil4" d="M34.67 4.51l0 7.16c0,1.67 1.35,3.02 3.02,3.02l7.16 0c1.67,0 3.03,-1.35 3.03,-3.02l0 -7.16c0,-1.67 -1.36,-3.03 -3.03,-3.03l-7.16 0c-1.67,0 -3.02,1.36 -3.02,3.03z"/>
  <path class="fil5" d="M47.88 28.13l0 -7.17c0,-1.67 -1.36,-3.02 -3.03,-3.02l-7.16 0c-1.67,0 -3.02,1.35 -3.02,3.02l0 7.17c0,1.67 1.35,3.02 3.02,3.02l7.16 0c1.67,0 3.03,-1.35 3.03,-3.02z"/>
  <path class="fil6" d="M18.12 20.96l0 7.17c0,1.67 1.35,3.02 3.02,3.02l7.17 0c1.67,0 3.02,-1.35 3.02,-3.02l0 -7.17c0,-1.67 -1.35,-3.02 -3.02,-3.02l-7.17 0c-1.67,0 -3.02,1.35 -3.02,3.02z"/>
  <path class="fil7" d="M1.48 4.51l0 7.16c0,1.67 1.36,3.02 3.03,3.02l7.16 0c1.67,0 3.02,-1.35 3.02,-3.02l0 -7.16c0,-1.67 -1.35,-3.03 -3.02,-3.03l-7.16 0c-1.67,0 -3.03,1.36 -3.03,3.03z"/>
  <path class="fil5" d="M1.48 37.86l0 7.17c0,1.67 1.36,3.02 3.03,3.02l7.16 0c1.67,0 3.02,-1.35 3.02,-3.02l0 -7.17c0,-1.67 -1.35,-3.02 -3.02,-3.02l-7.16 0c-1.67,0 -3.03,1.35 -3.03,3.02z"/>
  <path class="fil5" d="M31.33 45.03l0 -7.17c0,-1.67 -1.35,-3.02 -3.02,-3.02l-7.17 0c-1.67,0 -3.02,1.35 -3.02,3.02l0 7.17c0,1.67 1.35,3.02 3.02,3.02l7.17 0c1.67,0 3.02,-1.35 3.02,-3.02z"/>
  <path class="fil8" d="M5.53 23.16l0 2.77c0,0.65 0.52,1.18 1.17,1.18l2.78 0c0.64,0 1.17,-0.53 1.17,-1.18l0 -2.77c0,-0.65 -0.53,-1.17 -1.17,-1.17l-2.78 0c-0.65,0 -1.17,0.52 -1.17,1.17z"/>
  <path class="fil8" d="M21.93 25.37l1.97 1.97c0.45,0.46 1.2,0.46 1.65,0l1.97 -1.97c0.45,-0.45 0.45,-1.2 0,-1.65l-1.97 -1.97c-0.45,-0.45 -1.2,-0.45 -1.65,0l-1.97 1.97c-0.46,0.45 -0.46,1.2 0,1.65z"/>
  <path class="fil8" d="M38.71 23.16l0 2.77c0,0.65 0.53,1.18 1.17,1.18l2.78 0c0.65,0 1.17,-0.53 1.17,-1.18l0 -2.77c0,-0.65 -0.52,-1.17 -1.17,-1.17l-2.78 0c-0.64,0 -1.17,0.52 -1.17,1.17z"/>
  <path class="fil8" d="M22.16 6.7l0 2.78c0,0.64 0.53,1.17 1.18,1.17l2.77 0c0.65,0 1.17,-0.53 1.17,-1.17l0 -2.78c0,-0.65 -0.52,-1.17 -1.17,-1.17l-2.77 0c-0.65,0 -1.18,0.52 -1.18,1.17z"/>
  <path class="fil8" d="M38.48 8.92l1.96 1.96c0.46,0.46 1.2,0.46 1.66,0l1.96 -1.96c0.46,-0.46 0.46,-1.2 0,-1.66l-1.96 -1.96c-0.46,-0.46 -1.2,-0.46 -1.66,0l-1.96 1.96c-0.46,0.46 -0.46,1.2 0,1.66z"/>
  <path class="fil8" d="M5.3 42.27l1.96 1.97c0.46,0.45 1.2,0.45 1.66,0l1.96 -1.97c0.46,-0.46 0.46,-1.2 0,-1.65l-1.96 -1.97c-0.46,-0.46 -1.2,-0.46 -1.66,0l-1.96 1.97c-0.46,0.45 -0.46,1.19 0,1.65z"/>
  <path class="fil8" d="M22.16 40.06l0 2.77c0,0.65 0.53,1.17 1.18,1.17l2.77 0c0.65,0 1.17,-0.52 1.17,-1.17l0 -2.77c0,-0.65 -0.52,-1.18 -1.17,-1.18l-2.77 0c-0.65,0 -1.18,0.53 -1.18,1.18z"/>
  <path class="fil8" d="M5.3 8.92l1.96 1.96c0.46,0.46 1.2,0.46 1.66,0l1.96 -1.96c0.46,-0.46 0.46,-1.2 0,-1.66l-1.96 -1.96c-0.46,-0.46 -1.2,-0.46 -1.66,0l-1.96 1.96c-0.46,0.46 -0.46,1.2 0,1.66z"/>
  <path class="fil9" d="M211.99 34.19c-2.1,0.58 -0.6,2.93 -0.11,2.81 0.32,-0.79 1.13,-1.95 1.49,-2.45 0.23,-0.33 -0.79,-0.53 -1.38,-0.36z"/>
  <path class="fil10" d="M220.78 34.21c0.74,0.26 1.2,0.95 0.98,1.76 -0.19,0.68 -0.92,1.31 -1.8,1.03 -1.85,-0.59 -0.93,-3.41 0.82,-2.79z"/>
  <path class="fil11" d="M188.75 32.07c0.13,0.11 0.27,0.24 0.37,0.36 0.56,0.63 -0.11,0.1 0.77,0.67 0.16,0.1 0.26,0.19 0.4,0.31 0.52,0.49 1.6,1.72 1.81,2.56 0.07,0.28 0.01,0.37 0.02,0.6 0.01,0.26 0.57,1.41 0.63,3.06 0.03,0.8 0.01,1.98 -0.39,2.56 -0.7,1 -2.77,1.14 -3.31,0.74 -0.25,-0.19 -0.45,-0.63 -0.28,-1.07 0.32,-0.82 1.41,-0.54 2.25,-0.56 0.3,-0.8 0.08,-2.46 -0.17,-3.37 -0.04,-0.14 -0.09,-0.29 -0.14,-0.44 -0.1,-0.29 -0.06,-0.25 -0.24,-0.41 -0.39,-0.34 -0.63,-1.03 -0.98,-1.5 -2.08,-2.77 -3.43,1.14 -3.92,1.58 -0.43,0.38 -0.55,1.12 -0.65,1.82 -0.09,0.57 -0.15,1.78 0.05,2.28 0.5,0.24 1.84,-0.4 2.29,0.53 0.17,0.36 0.07,0.78 -0.14,1.03 -0.51,0.6 -2.68,0.32 -3.38,-0.51 -0.84,-1.01 -0.48,-3.73 -0.09,-4.98 0.47,-1.54 -0.11,-0.76 0.73,-2.21 1.04,-1.81 1.84,-1.95 2.17,-2.26 0.12,-0.11 0.18,-0.28 0.3,-0.42 0.15,-0.19 0.22,-0.18 0.41,-0.37 0.09,-0.71 0.11,-1.16 0.3,-1.85 0.17,-0.65 0.43,-1.06 0.63,-1.6 -0.82,0.23 -2.91,1.62 -3.51,2.25 -1.22,1.29 -1.52,1.44 -2.57,3.22 -1.33,2.27 -2.35,6.4 -1.21,9.37 1.13,2.96 4.03,3.61 7.76,3.76 3.77,0.15 7.72,0.03 11.5,0.03 3.77,0 7.76,0.13 11.48,-0.04 1.84,-0.08 3.47,-0.29 4.78,-0.83 0.76,0.2 1.54,0.37 2.31,0.53l3.45 0.51 3.61 0.29c5.16,0.34 21.68,0.34 23.84,-4.76 0.67,-1.57 0.21,-2.9 -0.3,-4.33 -0.91,-2.64 -2.46,-5.01 -4.48,-6.09 -0.63,-0.33 -1.17,-0.54 -1.93,-0.69 -0.58,-0.12 -0.63,-0.04 -0.93,-0.42 -1,-1.28 -1.19,-3.68 -1.21,-5.4 -0.02,-1.72 0.09,-3.4 0.28,-5.06 0.08,-0.78 0.23,-1.57 0.32,-2.33 0.07,-0.65 -0.04,-1.85 -0.09,-2.53 -0.23,-3.02 -1.01,-6.11 -2.45,-8.14 -1.57,-2.22 -3.77,-3.73 -6.62,-3.94 -0.85,-0.06 -1.66,0.03 -2.49,-0.01 -2.4,-0.12 -4.19,0.48 -6.01,1.8 -0.89,0.65 -1.83,1.78 -2.43,2.86 -1.46,2.63 -1.92,5.45 -2.08,8.52 -0.08,1.62 -0.03,1.09 0.14,2.51 0.41,3.28 1.07,9.31 -0.76,11.7 -0.3,0.4 -0.3,0.31 -0.91,0.43 -0.34,0.06 -0.67,0.15 -0.99,0.27 -0.07,-0.09 -0.12,-0.15 -0.2,-0.25 -0.92,-1.09 -3.34,-2.96 -4.67,-3.32 0.19,0.51 0.47,0.84 0.79,1.85 0.23,0.7 0.38,1.48 0.41,2.27 0.66,0.25 1.09,0.44 1.45,0.77 -1.53,1.34 -2.6,3.29 -3.28,5.29 -2.57,-0.96 -2.92,-5.07 0.35,-6.01 0.18,-1.12 -0.87,-3.67 -1.9,-4.56 -0.56,-0.47 -0.71,-0.54 -1.67,-0.58 -0.09,1.04 -1.01,1.92 -1.46,2.52 -0.14,0.18 -0.33,0.33 -0.48,0.5l-2.58 2.44 -3.35 2.68c-0.76,-0.43 -3.73,-3.01 -4.4,-3.59l-1.99 -1.99c-0.43,-0.52 -1.4,-1.59 -1.49,-2.56 -1.29,0.05 -1.79,0.26 -2.55,1.45 -0.51,0.79 -0.98,1.92 -0.92,3.06zm49.07 -16.31c1.25,-0.58 0.99,2.71 0.37,4.03 -0.43,0.91 -0.72,0.61 -0.91,0.58 -0.71,2.98 -2.35,5.85 -4.36,7.48 -0.65,0.53 -1.7,1 -2.69,0.99 -3.47,-0.01 -6.09,-4.87 -7.02,-8.49 -1.44,0.67 -1.81,-4.78 -0.92,-4.68l0.87 0.95c0.19,-0.06 0.8,-0.46 1.04,-0.6 2.31,-3.36 6.22,-3.84 9.21,-5.82 0.44,-0.3 0.71,-0.31 1.28,-0.17 0.82,0.2 1.41,0.75 1.89,1.52 0.73,1.21 1.04,2.67 1.24,4.21zm-0.24 20c0.16,-0.1 0.16,-0.17 0.23,-0.35 0.09,-0.06 0.18,-0.21 0.26,-0.31 0.11,-0.15 0.15,-0.19 0.28,-0.34 0.92,-1.02 0.67,-0.63 1.37,-1.12l0.56 -0.68c-0.13,-0.94 -1.37,-2.26 -2.58,-2.49 -0.36,-0.07 -0.78,0.01 -1.06,-0.18 -0.61,-0.42 -0.63,-1.93 1.59,-1.36 3.04,0.78 3.67,3.91 3.7,3.96 0.06,0.07 0.25,0.22 0.33,0.3 0.15,0.16 0.16,0.25 0.27,0.4 0.08,0.1 0.59,0.4 0.75,0.54 0.7,0.59 1.96,2.22 1.96,3.11 -0.01,0.74 0.82,1.95 0.57,4.59 -0.15,1.5 -0.82,1.65 -1.8,2.03 -0.24,0.09 -0.92,0.06 -1.22,0.06 -1.31,-0.03 -1.4,-1.84 0.05,-1.85 0.28,-0.01 1.1,0.06 1.28,0.02 0.37,-0.79 0.05,-2.75 -0.27,-3.74 -0.19,-0.61 -0.08,0.18 -0.75,-1.11 -0.14,-0.28 -0.31,-0.56 -0.47,-0.78 -2.11,-2.89 -3.27,0.84 -3.89,1.4 -0.64,0.58 -0.77,3.19 -0.57,4.24 0.64,0.02 1.51,-0.19 1.97,0.18 0.47,0.38 0.4,1.11 -0.04,1.46 -0.28,0.21 -1.5,0.27 -1.9,0.1 -0.56,-0.24 -1.06,-0.41 -1.34,-0.87 -0.66,-1.07 -0.38,-3.43 -0.01,-4.73 0.06,-0.2 0.24,-0.66 0.26,-0.81 0.05,-0.37 -0.12,-0.42 0.1,-0.91 0.13,-0.27 0.33,-0.5 0.37,-0.76zm-1.94 -2.34c-0.1,0.05 -0.06,0.01 -0.12,0.07 -0.15,0.11 -0.06,0.04 -0.12,0.11 -0.53,0.11 -3.03,2.19 -7.14,1.26 -1.69,-0.38 -5.03,-2.02 -5.25,-3.72 0.91,-0.36 1.83,-1.08 1.88,-2.26 0.64,0.34 2.29,2.51 5.34,2.52 1.7,0 3.03,-0.68 4.27,-1.6l1.12 -0.94c0.04,0.72 0.29,1.13 0.66,1.49 0.65,0.64 0.9,0.57 1.28,0.83 -0.05,0.7 -0.84,1.39 -1.32,1.79 -0.22,0.18 -0.43,0.29 -0.6,0.45zm-14.21 -1.14c-0.01,0.01 -0.02,0.01 -0.03,0.03 0,0.02 -0.02,0.02 -0.02,0.03l-0.14 0.31 -0.11 0.37c1.1,0.31 2.06,1.45 1.86,2.97 -0.16,1.24 -1.2,2.27 -2.55,2.31 -1.38,0.04 -2.46,-1 -2.68,-2.19 -0.26,-1.47 0.66,-2.73 1.74,-3.06 0.42,-2.01 1.48,-3.45 3.17,-4.02 1.34,-0.45 1.72,1.11 0.61,1.5 -0.56,0.19 -0.8,0.32 -1.15,0.66 -0.17,0.16 -0.66,0.77 -0.7,1.09z"/>
  <path class="fil11" d="M194.57 26.54c0.2,0.41 1.76,1.57 2.09,1.78 0.78,0.49 1.79,0.91 2.87,1.02 1.21,0.12 2.23,-0.15 3.21,-0.59 0.52,-0.24 2.14,-1.25 2.26,-1.6 0.14,-0.06 0.09,-0.01 0.15,-0.15 0.12,-0.05 0.12,-0.06 0.24,-0.17 0.03,-0.03 0.06,-0.06 0.09,-0.1 0.1,-0.12 0.04,-0.03 0.08,-0.14 0.2,-0.12 0.1,-0.01 0.21,-0.21 0.18,-0.07 0.61,-0.61 0.65,-0.78 0.21,-0.1 0.1,0.01 0.18,-0.19l0.44 -0.57c3.77,-5.44 5.2,-13.2 -0.67,-17.78 -5.79,-4.51 -14.52,-1.5 -16.23,5.64 -0.95,3.99 0.76,9.23 3.24,12.47 0.16,0.2 0.31,0.5 0.49,0.57 0.1,0.21 0.19,0.3 0.3,0.43 0.07,0.09 0.09,0.12 0.17,0.2 0.12,0.11 0.11,0.1 0.23,0.17zm9.33 -1.43l-0.03 0.01c-0.12,0.11 -0.24,0.22 -0.37,0.33l-0.02 0.03 -0.02 0.01c-0.51,0.43 -1.08,0.79 -1.66,1.05 -0.51,0.23 -1.05,0.37 -1.7,0.36l-0.04 0c-0.64,0.01 -1.19,-0.13 -1.69,-0.36 -0.59,-0.26 -1.15,-0.62 -1.66,-1.05l-0.03 -0.01 -0.02 -0.03c-0.12,-0.11 -0.25,-0.22 -0.36,-0.33l-0.03 -0.01 -0.03 -0.04c-0.48,-0.47 -0.91,-1 -1.25,-1.51 -0.38,-0.59 -0.68,-1.04 -1.03,-1.7 -0.59,-1.14 -1.15,-2.58 -1.47,-4.02 -0.13,-0.56 -0.2,-0.98 -0.18,-1.45 -0.02,-0.74 -0.17,-2.09 0.16,-3.1 1.35,-4.09 2.4,-2.26 6.08,-2.08 3.48,-2.4 6.36,-1.97 8.03,0.93 0.28,0.5 0.6,1.18 0.81,1.82 0.33,1.01 0.48,1.69 0.47,2.43 0.01,0.47 -0.06,0.89 -0.19,1.45 -0.32,1.44 -0.87,2.88 -1.47,4.02 -0.34,0.66 -0.65,1.11 -1.03,1.7 -0.34,0.51 -0.76,1.04 -1.25,1.51l-0.02 0.04zm-9.31 0.22c0.02,0 0.04,-0.01 0.06,-0.01 -0.02,0 -0.04,0.01 -0.06,0.01zm0.51 0.03c0.03,0.01 0.07,0.02 0.1,0.04 -0.03,-0.02 -0.07,-0.03 -0.1,-0.04zm-0.36 -0.05c0.02,0 0.04,0 0.06,0 -0.02,0 -0.04,0 -0.06,0zm-0.09 0.01c0.02,0 0.04,-0.01 0.06,-0.01 -0.02,0 -0.04,0.01 -0.06,0.01z"/>
  <path class="fil5" d="M34.67 37.86l0 7.17c0,1.67 1.35,3.02 3.02,3.02l7.16 0c1.67,0 3.03,-1.35 3.03,-3.02l0 -7.17c0,-1.67 -1.36,-3.02 -3.03,-3.02l-7.16 0c-1.67,0 -3.02,1.35 -3.02,3.02z"/>
  <path class="fil8" d="M38.48 42.27l1.96 1.97c0.46,0.45 1.2,0.45 1.66,0l1.96 -1.97c0.46,-0.46 0.46,-1.2 0,-1.65l-1.96 -1.97c-0.46,-0.46 -1.2,-0.46 -1.66,0l-1.96 1.97c-0.46,0.45 -0.46,1.19 0,1.65z"/>
 </g>
</svg>
